<?xml version="1.0" encoding="UTF-8"?>
<svg width="34px" height="34px" viewBox="0 0 34 34" version="1.1" xmlns="http://www.w3.org/2000/svg" xmlns:xlink="http://www.w3.org/1999/xlink">
    <!-- Generator: Sketch 63.1 (92452) - https://sketch.com -->
    <title>形状结合</title>
    <desc>Created with Sketch.</desc>
    <g id="验机" stroke="none" stroke-width="1" fill="none" fill-rule="evenodd">
        <g id="画板" transform="translate(-393.000000, -993.000000)" fill="#111111" fill-rule="nonzero">
            <g id="bar备份-5" transform="translate(142.000000, 978.000000)">
                <g id="编组-3备份-5">
                    <g id="编组-7" transform="translate(228.000000, 8.000000)">
                        <g id="编组-6" transform="translate(20.000000, 4.000000)">
                            <g id="编组-3" transform="translate(3.000000, 3.000000)">
                                <path d="M17,0 C26.3888407,0 34,7.61115925 34,17 C34,26.3888407 26.3888407,34 17,34 L17,34 L6,34 C2.6862915,34 0,31.3137085 0,28 L0,28 L0,17 L0.00300785127,16.6769603 C0.175204042,7.43719565 7.71907696,0 17,0 Z M17,3 C9.36733565,3 3.14446282,9.11467141 3.00248701,16.7328599 L3.00248701,16.7328599 L2.99986996,17.0279321 L2.99986996,28 L3.00509269,28.1762728 C3.09633912,29.75108 4.40231912,31 6,31 L6,31 L17,31 L17.312645,30.996578 C24.9002476,30.8303269 31,24.6275002 31,17 C31,9.2680135 24.7319865,3 17,3 Z M24,15 C25.1045695,15 26,15.8954305 26,17 C26,18.1045695 25.1045695,19 24,19 C22.8954305,19 22,18.1045695 22,17 C22,15.8954305 22.8954305,15 24,15 Z M17,15 C18.1045695,15 19,15.8954305 19,17 C19,18.1045695 18.1045695,19 17,19 C15.8954305,19 15,18.1045695 15,17 C15,15.8954305 15.8954305,15 17,15 Z M10,15 C11.1045695,15 12,15.8954305 12,17 C12,18.1045695 11.1045695,19 10,19 C8.8954305,19 8,18.1045695 8,17 C8,15.8954305 8.8954305,15 10,15 Z" id="形状结合"></path>
                            </g>
                        </g>
                    </g>
                </g>
            </g>
        </g>
    </g>
</svg>