<?xml version="1.0" standalone="no"?>
<!DOCTYPE svg PUBLIC "-//W3C//DTD SVG 1.1//EN" "http://www.w3.org/Graphics/SVG/1.1/DTD/svg11.dtd" >
<svg xmlns="http://www.w3.org/2000/svg">
  <defs>
    <font id="zziconfont-4.0.0" horiz-adv-x="1024">
      <font-face
        font-family="zziconfont-4.0.0"
        units-per-em="1024"
        ascent="1024"
        descent="0"
      />
      <missing-glyph horiz-adv-x="0"/>
        <glyph
          glyph-name="hunter-cart"
          unicode="&#xe06d;"
          horiz-adv-x="1024" d=" M861.867 746.667H187.733L238.933 320H806.4L861.867 746.667zM149.333 949.333C155.733 949.333 160 945.067 160 940.8L179.2 812.8H887.467C910.933 812.8 930.133 793.6 930.133 770.133C930.133 768 930.133 765.867 930.133 765.867L870.4 296.533C868.267 275.2 849.067 258.133 827.733 258.133H219.733C198.4 258.133 179.2 275.2 177.067 296.533L96 938.667C96 945.067 100.267 949.333 106.667 949.333H149.333zM757.333 202.667C793.6 202.667 821.333 174.933 821.333 138.667C821.333 102.4 793.6 74.667 757.333 74.667S693.333 102.4 693.333 138.667C693.333 174.933 721.067 202.667 757.333 202.667zM288 202.667C324.267 202.667 352 174.933 352 138.667C352 102.4 324.267 74.667 288 74.667C251.733 74.667 224 102.4 224 138.667C224 174.933 253.867 202.667 288 202.667z" />
        <glyph
          glyph-name="hunter-download"
          unicode="&#xe06e;"
          horiz-adv-x="1024" d=" M533.333 896C539.733 896 544 891.733 544 885.333V573.867L586.667 616.533C595.2 625.067 608 625.067 616.533 616.533L646.4 586.667L512 450.133L375.467 586.667L405.333 616.533C413.867 625.067 426.667 625.067 435.2 616.533L477.867 573.867V885.333C480 891.733 484.267 896 490.667 896H533.333zM309.333 896C315.733 896 320 891.733 320 885.333V842.667C320 836.267 315.733 832 309.333 832H192V192H832V832H714.667C708.267 832 704 836.267 704 842.667V885.333C704 891.733 708.267 896 714.667 896H853.333C876.8 896 896 876.8 896 853.333V170.667C896 147.2 876.8 128 853.333 128H170.667C147.2 128 128 147.2 128 170.667V853.333C128 876.8 147.2 896 170.667 896H309.333z" />
        <glyph
          glyph-name="hunter-message"
          unicode="&#xe06f;"
          horiz-adv-x="1024" d=" M533.333 558.933C556.8 558.933 576 539.733 576 516.267S556.8 473.6 533.333 473.6H490.667C467.2 473.6 448 492.8 448 516.267S467.2 558.933 490.667 558.933H533.333zM704 558.933C727.467 558.933 746.667 539.733 746.667 516.267S727.467 473.6 704 473.6C680.533 473.6 661.333 492.8 661.333 516.267S680.533 558.933 704 558.933zM320 558.933C343.467 558.933 362.667 539.733 362.667 516.267S343.467 473.6 320 473.6S277.333 492.8 277.333 516.267S296.533 558.933 320 558.933zM853.333 825.6H170.667V206.933H362.667V136.533L505.6 200.533C514.133 204.8 522.667 206.933 531.2 206.933L535.467 206.933H853.333V825.6zM874.667 889.6C898.133 889.6 917.333 870.4 917.333 846.933V185.6C917.333 162.133 898.133 142.933 874.667 142.933H535.467C533.333 142.933 533.333 142.933 531.2 142.933L328.533 51.2C317.867 46.933 305.067 51.2 300.8 61.867C298.667 64 298.667 66.133 298.667 70.4V142.933H149.333C125.867 142.933 106.667 162.133 106.667 185.6V846.933C106.667 870.4 125.867 889.6 149.333 889.6H874.667z" />
        <glyph
          glyph-name="hunter-more"
          unicode="&#xe070;"
          horiz-adv-x="1024" d=" M704 554.667C727.467 554.667 746.667 535.467 746.667 512S727.467 469.333 704 469.333C680.533 469.333 661.333 488.533 661.333 512S680.533 554.667 704 554.667zM320 554.667C343.467 554.667 362.667 535.467 362.667 512S343.467 469.333 320 469.333S277.333 488.533 277.333 512S296.533 554.667 320 554.667zM512 576C548.267 576 576 548.267 576 512S548.267 448 512 448S448 475.733 448 512S475.733 576 512 576zM512 874.667C311.467 874.667 149.333 712.533 149.333 512S311.467 149.333 512 149.333S874.667 311.467 874.667 512S712.533 874.667 512 874.667zM512 938.667C746.667 938.667 938.667 746.667 938.667 512S746.667 85.333 512 85.333S85.333 277.333 85.333 512S277.333 938.667 512 938.667z" />
        <glyph
          glyph-name="hunter-scan"
          unicode="&#xe071;"
          horiz-adv-x="1024" d=" M853.333 896C876.8 896 896 876.8 896 853.333V672C896 665.6 891.733 661.333 885.333 661.333H842.667C836.267 661.333 832 665.6 832 672V832H672C665.6 832 661.333 836.267 661.333 842.667V885.333C661.333 891.733 665.6 896 672 896H853.333zM352 896C358.4 896 362.667 891.733 362.667 885.333V842.667C362.667 836.267 358.4 832 352 832H192V672C192 665.6 187.733 661.333 181.333 661.333H138.667C132.267 661.333 128 665.6 128 672V853.333C128 876.8 147.2 896 170.667 896H352zM885.333 544C889.6 544 893.867 539.733 896 535.467L896 533.333V490.667C896 486.4 891.733 482.133 887.467 480L885.333 480H138.667C134.4 480 130.133 484.267 128 488.533L128 490.667V533.333C128 537.6 132.267 541.867 136.533 544L138.667 544H885.333zM885.333 362.667C891.733 362.667 896 358.4 896 352V170.667C896 147.2 876.8 128 853.333 128H682.667V192H832V352C832 358.4 836.267 362.667 842.667 362.667H885.333zM181.333 362.667C187.733 362.667 192 358.4 192 352V192H341.333V128H170.667C147.2 128 128 147.2 128 170.667V352C128 358.4 132.267 362.667 138.667 362.667H181.333z" />
        <glyph
          glyph-name="hunter-search"
          unicode="&#xe072;"
          horiz-adv-x="1024" d=" M268.8 755.2C140.8 627.2 140.8 420.267 268.8 294.4C396.8 166.4 605.867 166.4 733.867 294.4C861.867 422.4 861.867 629.333 733.867 755.2C603.733 883.2 396.8 883.2 268.8 755.2zM778.667 802.133C925.867 654.933 932.267 422.4 800 268.8L915.2 155.733C919.467 151.467 919.467 147.2 917.333 142.933L915.2 140.8L883.2 108.8C878.933 104.533 872.533 104.533 868.267 108.8L755.2 224C601.6 93.867 369.067 100.267 221.867 245.333C68.267 398.933 68.267 648.533 221.867 800C375.467 955.733 625.067 955.733 778.667 802.133z" />
        <glyph
          glyph-name="hunter-service"
          unicode="&#xe073;"
          horiz-adv-x="1024" d=" M512 938.667C294.4 938.667 138.667 770.133 128 554.667V298.667C128 275.2 147.2 256 168.533 256H279.467C300.8 256 320 275.2 320 298.667V512C320 535.467 300.8 554.667 279.467 554.667H192C202.667 736 328.533 874.667 512 874.667S825.6 736 836.267 554.667H742.4C721.067 552.533 704 533.333 704 512V296.533L704 294.4C706.133 273.067 723.2 256 744.533 256L829.867 256C819.2 206.933 776.533 170.667 725.333 170.667H597.333V181.333L597.333 183.467C597.333 187.733 593.067 192 586.667 192H512L509.867 192C488.533 189.867 469.333 172.8 469.333 149.333V128L469.333 125.867C471.467 104.533 488.533 85.333 512 85.333H586.667L588.8 85.333C593.067 85.333 597.333 89.6 597.333 96V106.667H725.333C819.2 106.667 896 183.467 896 277.333V554.667C885.333 770.133 729.6 938.667 512 938.667zM256 490.667V320H192V490.667H256zM832 320H768V490.667H832V320z" />
        <glyph
          glyph-name="hunter-setting"
          unicode="&#xe074;"
          horiz-adv-x="1024" d=" M512 576C475.733 576 448 548.267 448 512S475.733 448 512 448S576 475.733 576 512S548.267 576 512 576zM512 640C582.4 640 640 582.4 640 512S582.4 384 512 384S384 441.6 384 512S441.6 640 512 640zM413.867 859.733L334.933 827.733L334.933 825.6C332.8 793.6 320 761.6 296.533 738.133L292.267 733.867C266.667 708.267 234.667 693.333 200.533 691.2L198.4 691.2L166.4 612.267L168.533 608C189.867 582.4 202.667 552.533 202.667 518.4L202.667 512C202.667 475.733 189.867 443.733 168.533 416L166.4 413.867L198.4 334.933L200.533 334.933C232.533 332.8 264.533 320 288 296.533L292.267 292.267C317.867 266.667 332.8 234.667 334.933 200.533L334.933 198.4L413.867 166.4L418.133 168.533C443.733 189.867 473.6 202.667 507.733 202.667L514.133 202.667C550.4 202.667 582.4 189.867 610.133 168.533L612.267 166.4L691.2 198.4L691.2 200.533C693.333 232.533 706.133 264.533 729.6 288L733.867 292.267C759.467 317.867 791.467 332.8 825.6 334.933L827.733 334.933L859.733 413.867L857.6 416C836.267 441.6 823.467 471.467 823.467 505.6L823.467 512C823.467 548.267 836.267 580.267 857.6 608L859.733 612.267L827.733 691.2L825.6 691.2C793.6 693.333 761.6 706.133 738.133 729.6L733.867 733.867C708.267 759.467 693.333 791.467 691.2 825.6L691.2 827.733L612.267 859.733L610.133 857.6C584.533 836.267 554.667 823.467 520.533 823.467L514.133 823.467C477.867 823.467 445.867 836.267 418.133 857.6L413.867 859.733zM588.8 938.667L759.467 868.267C746.667 838.4 753.067 802.133 776.533 776.533C802.133 750.933 836.267 746.667 868.267 759.467L938.667 588.8C908.8 576 887.467 546.133 887.467 512C887.467 477.867 908.8 448 938.667 435.2L868.267 264.533C838.4 277.333 802.133 270.933 776.533 247.467C750.933 221.867 746.667 187.733 759.467 155.733L588.8 85.333C576 115.2 546.133 136.533 512 136.533C477.867 136.533 448 115.2 435.2 85.333L264.533 155.733C277.333 185.6 270.933 221.867 247.467 247.467C221.867 273.067 187.733 277.333 155.733 264.533L85.333 435.2C115.2 448 136.533 477.867 136.533 512C136.533 546.133 115.2 576 85.333 588.8L155.733 759.467C185.6 746.667 221.867 753.067 247.467 776.533C273.067 802.133 277.333 836.267 264.533 868.267L435.2 938.667C448 908.8 477.867 887.467 512 887.467C546.133 887.467 576 908.8 588.8 938.667z" />
        <glyph
          glyph-name="hunter-share"
          unicode="&#xe075;"
          horiz-adv-x="1024" d=" M896 896V704H874.667C851.2 704 832 723.2 832 746.667V787.2L571.733 526.933C567.467 522.667 561.067 522.667 556.8 526.933L526.933 556.8C522.667 561.067 522.667 567.467 526.933 571.733L787.2 832H736C718.933 832 704 846.933 704 864V896H896zM576 896V832H192V192H832V576H896V170.667C896 147.2 876.8 128 853.333 128H170.667C147.2 128 128 147.2 128 170.667V853.333C128 876.8 147.2 896 170.667 896H576z" />
        <glyph
          glyph-name="zlj-add"
          unicode="&#xe076;"
          horiz-adv-x="1024" d=" M563.2 281.6A25.6 25.6 0 0 0 537.6 256H486.4A25.6 25.6 0 0 0 460.8 281.6V460.8H281.6A25.6 25.6 0 0 0 256 486.4V537.6A25.6 25.6 0 0 0 281.6 563.2H460.8V742.4A25.6 25.6 0 0 0 486.4 768H537.6A25.6 25.6 0 0 0 563.2 742.4V563.2H742.4A25.6 25.6 0 0 0 768 537.6V486.4A25.6 25.6 0 0 0 742.4 460.8H563.2V281.6z" />
        <glyph
          glyph-name="zlj-ascend"
          unicode="&#xe077;"
          horiz-adv-x="1024" d=" M548.181 646.485L731.819 462.848A51.2 51.2 0 0 0 695.569 375.467H328.363A51.2 51.2 0 0 0 292.181 462.848L475.75 646.485A51.2 51.2 0 0 0 548.181 646.485z" />
        <glyph
          glyph-name="zlj-back"
          unicode="&#xe078;"
          horiz-adv-x="1024" d=" M582.251 813.248A21.333333 21.333333 0 0 0 612.416 813.248L642.581 783.083A21.333333 21.333333 0 0 0 642.581 752.917L401.707 512L642.603 271.083A21.333333 21.333333 0 0 0 642.603 240.917L612.437 210.752A21.333333 21.333333 0 0 0 582.272 210.752L311.168 481.835A42.666667 42.666667 0 0 0 308.672 539.456L311.168 542.165L582.251 813.248z" />
        <glyph
          glyph-name="zlj-bell"
          unicode="&#xe079;"
          horiz-adv-x="1024" d=" M597.333 213.333A85.333333 85.333333 0 0 0 426.773 209.067L426.667 213.333H597.333zM533.333 917.333A21.333333 21.333333 0 0 0 554.667 896V850.069C687.573 829.547 789.333 714.645 789.333 576V320H832A21.333333 21.333333 0 0 0 853.333 298.667V256A21.333333 21.333333 0 0 0 832 234.667H192A21.333333 21.333333 0 0 0 170.667 256V298.667A21.333333 21.333333 0 0 0 192 320H234.667V576C234.667 714.667 336.427 829.547 469.333 850.069V896A21.333333 21.333333 0 0 0 490.667 917.333H533.333zM512 768A192 192 0 0 1 320.085 581.653L320 576V320H704V576A192 192 0 0 1 517.653 767.915L512 768z" />
        <glyph
          glyph-name="zlj-cart"
          unicode="&#xe07a;"
          horiz-adv-x="1024" d=" M330.667 213.333A53.333333 53.333333 0 1 0 330.667 106.667A53.333333 53.333333 0 0 0 330.667 213.333zM714.667 213.333A53.333333 53.333333 0 1 0 714.667 106.667A53.333333 53.333333 0 0 0 714.667 213.333zM225.195 874.667A53.333333 53.333333 0 0 0 277.632 831.147L278.165 827.691L285.312 768H839.68A53.333333 53.333333 0 0 0 892.885 718.165L893.013 714.667A53.333333 53.333333 0 0 0 892.288 706.005L891.413 701.739L790.08 296.405A53.333333 53.333333 0 0 0 741.995 256.128L738.347 256H308.139A53.333333 53.333333 0 0 0 255.701 299.52L255.168 302.976L196.821 789.333H170.667A42.666667 42.666667 0 0 0 128.107 828.8L128 832A42.666667 42.666667 0 0 0 167.467 874.56L170.667 874.667H225.195zM798.677 682.667H295.552L336.491 341.333H713.344L798.677 682.667z" />
        <glyph
          glyph-name="zlj-close-o"
          unicode="&#xe07b;"
          horiz-adv-x="1024" d=" M766.447 692.002L585.438 510.993L754.398 342.033A34.133333 34.133333 0 0 0 754.398 293.769L730.231 269.602A34.133333 34.133333 0 0 0 681.967 269.602L513.007 438.562L344.047 269.602A34.133333 34.133333 0 0 0 295.817 269.602L271.65 293.769A34.133333 34.133333 0 0 0 271.65 342.033L440.61 510.993L259.601 692.002A34.133333 34.133333 0 0 0 259.601 740.267L283.733 764.399A34.133333 34.133333 0 0 0 331.998 764.399L513.007 583.39L694.05 764.399A34.133333 34.133333 0 0 0 742.315 764.399L766.447 740.267A34.133333 34.133333 0 0 0 766.447 692.002z" />
        <glyph
          glyph-name="zlj-close"
          unicode="&#xe07c;"
          horiz-adv-x="1024" d=" M292.416 791.915L512 572.373L731.584 791.936A21.333333 21.333333 0 0 0 761.749 791.936L791.915 761.771A21.333333 21.333333 0 0 0 791.915 731.605L572.373 512L791.936 292.416A21.333333 21.333333 0 0 0 791.936 262.251L761.771 232.085A21.333333 21.333333 0 0 0 731.605 232.085L512 451.627L292.416 232.085A21.333333 21.333333 0 0 0 262.251 232.085L232.085 262.251A21.333333 21.333333 0 0 0 232.085 292.416L451.627 512L232.085 731.584A21.333333 21.333333 0 0 0 232.085 761.749L262.251 791.915A21.333333 21.333333 0 0 0 292.416 791.915z" />
        <glyph
          glyph-name="zlj-compare"
          unicode="&#xe07d;"
          horiz-adv-x="1024" d=" M512 917.333C735.851 917.333 917.333 735.851 917.333 512S735.851 106.667 512 106.667S106.667 288.149 106.667 512S288.149 917.333 512 917.333zM512 832C335.275 832 192 688.725 192 512C192 335.275 335.275 192 512 192C688.725 192 832 335.275 832 512C832 688.725 688.725 832 512 832zM384 725.333A21.333333 21.333333 0 0 0 405.333 704V597.333H469.333A21.333333 21.333333 0 0 0 490.667 576V533.333A21.333333 21.333333 0 0 0 469.333 512H405.333V405.333H469.333A21.333333 21.333333 0 0 0 490.667 384V341.333A21.333333 21.333333 0 0 0 469.333 320H341.333A21.333333 21.333333 0 0 0 320 341.333V704A21.333333 21.333333 0 0 0 341.333 725.333H384zM597.333 725.333A21.333333 21.333333 0 0 0 618.667 704V597.333H682.667A21.333333 21.333333 0 0 0 704 576V533.333A21.333333 21.333333 0 0 0 682.667 512H618.667V405.333H682.667A21.333333 21.333333 0 0 0 704 384V341.333A21.333333 21.333333 0 0 0 682.667 320H554.667A21.333333 21.333333 0 0 0 533.333 341.333V704A21.333333 21.333333 0 0 0 554.667 725.333H597.333z" />
        <glyph
          glyph-name="zlj-descend"
          unicode="&#xe07e;"
          horiz-adv-x="1024" d=" M475.819 377.515L292.181 561.152A51.2 51.2 0 0 0 328.431 648.533L695.637 648.533A51.2 51.2 0 0 0 731.819 561.152L548.25 377.515A51.2 51.2 0 0 0 475.819 377.515z" />
        <glyph
          glyph-name="zlj-filter"
          unicode="&#xe07f;"
          horiz-adv-x="1024" d=" M766.874 887.467A68.266667 68.266667 0 0 0 825.412 784.043L682.598 546.133V203.23A68.266667 68.266667 0 0 0 588.971 139.844L384.034 221.764A68.266667 68.266667 0 0 0 341.129 285.15V546.133L177.527 780.083A68.266667 68.266667 0 0 0 233.438 887.467H766.874zM706.56 785.067H298.974L443.529 578.389V308.292L580.164 253.645V574.498L706.56 785.067z" />
        <glyph
          glyph-name="zlj-fold"
          unicode="&#xe080;"
          horiz-adv-x="1024" d=" M287.531 431.462L305.604 449.562L307.396 451.123L309.367 453.299L488.567 632.499L491.486 635.136A38.4 38.4 0 0 0 539.947 635.136L542.865 632.499L722.065 453.299L723.908 451.277L724.881 450.458L743.927 431.462A25.6 25.6 0 0 0 743.927 395.238L725.828 377.139A25.6 25.6 0 0 0 689.604 377.139L671.505 395.238L669.892 397.03L667.767 399.002L515.703 551.066L363.665 399.002L361.54 397.03L359.927 395.238L341.828 377.139A25.6 25.6 0 0 0 305.604 377.139L287.505 395.238A25.6 25.6 0 0 0 287.505 431.462z" />
        <glyph
          glyph-name="zlj-more"
          unicode="&#xe081;"
          horiz-adv-x="1024" d=" M512 341.333A64 64 0 1 0 512 213.333A64 64 0 0 0 512 341.333zM512 576A64 64 0 1 0 512 448A64 64 0 0 0 512 576zM512 810.667A64 64 0 1 0 512 682.667A64 64 0 0 0 512 810.667z" />
        <glyph
          glyph-name="zlj-next"
          unicode="&#xe082;"
          horiz-adv-x="1024" d=" M466.099 740.198L484.198 722.099L485.786 720.307L487.962 718.362L667.162 539.162L669.798 536.243A38.4 38.4 0 0 0 669.798 487.757L667.162 484.838L487.962 305.638L485.914 303.795L485.094 302.848L466.099 283.802A25.6 25.6 0 0 0 429.901 283.802L411.802 301.901A25.6 25.6 0 0 0 411.802 338.099L429.901 356.198L431.693 357.811L433.638 359.962L585.728 512L433.664 664.064L431.693 666.189L429.901 667.802L411.827 685.901A25.6 25.6 0 0 0 411.827 722.099L429.926 740.198A25.6 25.6 0 0 0 466.125 740.198z" />
        <glyph
          glyph-name="zlj-notebook"
          unicode="&#xe083;"
          horiz-adv-x="1024" d=" M785.06 828.293C834.191 828.293 873.82 787.743 873.82 737.976V327.68H899.973A30.72 30.72 0 0 0 930.693 296.96V256A71.68 71.68 0 0 0 859.013 184.32H164.987A71.68 71.68 0 0 0 93.307 256V296.96A30.72 30.72 0 0 0 124.027 327.68H150.18V737.976C150.18 786.309 187.515 825.917 234.619 828.191L238.92 828.293zM399.729 286.72H134.267V256A30.72 30.72 0 0 1 164.987 225.28H859.013A30.72 30.72 0 0 1 889.733 256V286.72H624.271A71.68 71.68 0 0 0 563.2 252.58H460.8A71.68 71.68 0 0 0 399.729 286.72zM785.06 787.333H238.94C212.644 787.333 191.14 765.338 191.14 737.976V327.68H426.988L431.821 314.02C436.122 301.855 447.672 293.54 460.8 293.54H563.2A30.72 30.72 0 0 1 592.179 314.02L596.992 327.68H832.84V737.976C832.84 764.191 813.076 785.49 788.296 787.231L785.039 787.333z" />
        <glyph
          glyph-name="zlj-pad"
          unicode="&#xe084;"
          horiz-adv-x="1024" d=" M723.62 885.187A81.92 81.92 0 0 0 805.54 803.267V220.733A81.92 81.92 0 0 0 723.62 138.813H300.38A81.92 81.92 0 0 0 218.46 220.733V803.267A81.92 81.92 0 0 0 300.38 885.187H723.62zM764.58 298.107H259.4V220.733A40.96 40.96 0 0 1 300.36 179.773H723.62A40.96 40.96 0 0 1 764.58 220.733V298.107zM512 273.06A34.14016 34.14016 0 1 0 512 204.8A34.14016 34.14016 0 0 0 512 273.06zM723.62 844.247H300.38A40.96 40.96 0 0 1 259.42 803.287L259.4 339.067H764.58V803.267A40.96 40.96 0 0 1 723.62 844.227z" />
        <glyph
          glyph-name="zlj-phone"
          unicode="&#xe085;"
          horiz-adv-x="1024" d=" M660.907 911.787A88.18688 88.18688 0 0 0 749.094 823.6V209.2A88.18688 88.18688 0 0 0 660.907 121.033H365.094A88.18688 88.18688 0 0 0 276.907 209.2V823.6A88.18688 88.18688 0 0 0 362.288 911.746L365.094 911.787H660.907zM660.907 871.974H365.094A48.35328 48.35328 0 0 1 316.72 823.6V209.2A48.35328 48.35328 0 0 1 365.094 160.867H660.907A48.35328 48.35328 0 0 1 709.26 209.2V823.6A48.35328 48.35328 0 0 1 660.907 871.974zM513 300.233A34.14016 34.14016 0 1 0 513 231.974A34.14016 34.14016 0 0 0 513 300.233zM607.351 800.847A19.660799999999995 19.660799999999995 0 0 0 626.767 780.94A19.660799999999995 19.660799999999995 0 0 0 607.351 761.033H418.628A19.660799999999995 19.660799999999995 0 0 0 399.193 780.94A19.660799999999995 19.660799999999995 0 0 0 418.628 800.847z" />
        <glyph
          glyph-name="zlj-search"
          unicode="&#xe086;"
          horiz-adv-x="1024" d=" M501.333 874.667C695.744 874.667 853.333 717.077 853.333 522.667C853.333 438.123 823.531 360.533 773.845 299.861L893.632 180.032A21.333333 21.333333 0 0 0 893.632 149.867L863.467 119.701A21.333333 21.333333 0 0 0 833.301 119.701L712.192 240.789A350.4426669999999 350.4426669999999 0 0 0 501.333 170.667C306.923 170.667 149.333 328.256 149.333 522.667S306.923 874.667 501.333 874.667zM501.333 789.333C354.048 789.333 234.667 669.952 234.667 522.667S354.048 256 501.333 256S768 375.381 768 522.667S648.619 789.333 501.333 789.333z" />
        <glyph
          glyph-name="zlj-service"
          unicode="&#xe087;"
          horiz-adv-x="1024" d=" M512 106.667A21.333333 21.333333 0 0 0 490.667 128V170.667A21.333333 21.333333 0 0 0 509.504 191.851L512 192H554.667A236.373333 236.373333 0 0 1 743.189 285.803A117.034667 117.034667 0 0 0 704 373.333V501.333A117.290667 117.290667 0 0 0 763.349 603.371C740.651 721.451 636.736 810.667 512 810.667S283.349 721.451 260.629 603.349A117.20533299999998 117.20533299999998 0 0 0 320 501.333V373.333A117.33333300000001 117.33333300000001 0 0 0 85.333 373.333V501.333A117.376 117.376 0 0 0 176.085 615.637C204.843 775.061 344.32 896 512 896C679.701 896 819.157 775.04 847.893 615.637A117.376 117.376 0 0 0 938.667 501.333V373.333A117.33333300000001 117.33333300000001 0 0 0 826.475 256.107L822.336 249.92A321.706667 321.706667 0 0 0 562.347 106.773L554.667 106.667H512zM202.667 533.333A32 32 0 0 1 170.816 504.405L170.667 501.333V373.333A32 32 0 0 1 234.517 370.261L234.667 373.333V501.333A32 32 0 0 1 202.667 533.333zM821.333 533.333A32 32 0 0 1 789.483 504.405L789.333 501.333V373.333A32 32 0 0 1 853.184 370.261L853.333 373.333V501.333A32 32 0 0 1 821.333 533.333z" />
        <glyph
          glyph-name="zlj-setting"
          unicode="&#xe088;"
          horiz-adv-x="1024" d=" M533.333 905.024L841.685 726.976A42.666667 42.666667 0 0 0 863.019 690.027V333.973A42.666667 42.666667 0 0 0 841.685 297.024L533.333 118.976A42.666667 42.666667 0 0 0 490.667 118.976L182.315 297.024A42.666667 42.666667 0 0 0 160.981 333.973V690.027A42.666667 42.666667 0 0 0 182.315 726.976L490.667 905.024A42.666667 42.666667 0 0 0 533.333 905.024zM512 818.816L246.293 665.408V358.613L512 205.205L777.685 358.613V665.408L512 818.816zM512 661.333A149.333333 149.333333 0 1 0 512 362.667A149.333333 149.333333 0 0 0 512 661.333zM512 576A64 64 0 1 1 512 448A64 64 0 0 1 512 576z" />
        <glyph
          glyph-name="zlj-share"
          unicode="&#xe089;"
          horiz-adv-x="1024" d=" M426.667 832A21.333333 21.333333 0 0 0 448 810.667V768A21.333333 21.333333 0 0 0 426.667 746.667H277.333V277.333H746.667V426.667A21.333333 21.333333 0 0 0 768 448H810.667A21.333333 21.333333 0 0 0 832 426.667V234.667A42.666667 42.666667 0 0 0 789.333 192H234.667A42.666667 42.666667 0 0 0 192 234.667V789.333A42.666667 42.666667 0 0 0 234.667 832H426.667zM810.667 832A21.333333 21.333333 0 0 0 832 810.667V576A21.333333 21.333333 0 0 0 810.667 554.667H768A21.333333 21.333333 0 0 0 746.667 576V686.357L456.384 396.053A21.333333 21.333333 0 0 0 426.219 396.053L396.053 426.219A21.333333 21.333333 0 0 0 396.053 456.384L686.315 746.667H576A21.333333 21.333333 0 0 0 554.667 768V810.667A21.333333 21.333333 0 0 0 576 832H810.667z" />
        <glyph
          glyph-name="zlj-sort"
          unicode="&#xe08a;"
          horiz-adv-x="1024" d=" M695.603 460.8A51.2 51.2 0 0 0 735.3 377.276L731.785 373.385L548.215 189.815A51.2 51.2 0 0 0 479.676 186.3L475.785 189.815L292.215 373.385A51.2 51.2 0 0 0 323.482 460.561L328.363 460.8H695.637zM548.181 834.219L731.75 650.581A51.2 51.2 0 0 0 695.637 563.2H328.363A51.2 51.2 0 0 0 292.181 650.581L475.75 834.219A51.2 51.2 0 0 0 548.181 834.219z" />
        <glyph
          glyph-name="zlj-toast-fail"
          unicode="&#xe08b;"
          horiz-adv-x="1024" d=" M512 1024C794.768 1024 1024 794.768 1024 512C1024 229.232 794.768 0 512 0C229.232 0 0 229.232 0 512C0 794.768 229.232 1024 512 1024zM512 960C264.576 960 64 759.424 64 512S264.576 64 512 64S960 264.576 960 512S759.424 960 512 960zM347.312 721.936L512 557.28L676.688 721.952A16 16 0 0 0 699.312 721.952L721.936 699.328A16 16 0 0 0 721.936 676.704L552.576 507.312L689.472 370.448C689.664 370.288 689.84 370.128 690.016 369.936L712.64 347.312A16 16 0 0 0 712.64 324.688L690.016 302.064A16 16 0 0 0 667.376 302.064L665.408 304.032L665.376 304L512 457.36L358.624 304L358.56 304.064L356.576 302.064A16 16 0 0 0 333.936 302.064L311.312 324.688A16 16 0 0 0 311.312 347.312L333.936 369.936L335.024 370.912L471.44 507.312L302.064 676.688A16 16 0 0 0 302.064 699.312L324.688 721.936A16 16 0 0 0 347.312 721.936z" />
        <glyph
          glyph-name="zlj-toast-success"
          unicode="&#xe08c;"
          horiz-adv-x="1024" d=" M512 1024C794.768 1024 1024 794.768 1024 512C1024 229.232 794.768 0 512 0C229.232 0 0 229.232 0 512C0 794.768 229.232 1024 512 1024zM512 960C264.576 960 64 759.424 64 512S264.576 64 512 64S960 264.576 960 512S759.424 960 512 960zM470.624 345.376A32 32 0 0 0 427.408 343.504L425.376 345.376L286.064 484.688A16 16 0 0 0 286.064 507.312L308.688 529.936A16 16 0 0 0 331.312 529.936L448 413.28L692.688 657.952A16 16 0 0 0 715.312 657.952L737.936 635.328A16 16 0 0 0 737.936 612.704L470.624 345.376z" />
        <glyph
          glyph-name="zlj-toast-warn"
          unicode="&#xe08d;"
          horiz-adv-x="1024" d=" M512 1024C794.768 1024 1024 794.768 1024 512C1024 229.232 794.768 0 512 0C229.232 0 0 229.232 0 512C0 794.768 229.232 1024 512 1024zM512 960C264.576 960 64 759.424 64 512S264.576 64 512 64S960 264.576 960 512S759.424 960 512 960zM512 352A48 48 0 1 0 512 256A48 48 0 0 0 512 352zM528 752A16 16 0 0 0 544 736V416A16 16 0 0 0 528 400H496A16 16 0 0 0 480 416V736A16 16 0 0 0 496 752H528z" />
        <glyph
          glyph-name="zlj-unfold"
          unicode="&#xe08e;"
          horiz-adv-x="1024" d=" M740.233 578.202L722.133 560.102L720.341 558.515L718.396 556.339L539.196 377.139L536.277 374.502A38.4 38.4 0 0 0 487.791 374.502L484.873 377.139L305.673 556.339L303.829 558.387L302.857 559.206L283.836 578.202A25.6 25.6 0 0 0 283.836 614.4L301.935 632.499A25.6 25.6 0 0 0 338.133 632.499L356.233 614.4L357.845 612.608L359.996 610.662L512.034 458.598L664.098 610.662L666.197 612.634L667.836 614.4L685.935 632.499A25.6 25.6 0 0 0 722.133 632.499L740.233 614.4A25.6 25.6 0 0 0 740.233 578.202z" />
        <glyph
          glyph-name="zlj-want-o"
          unicode="&#xe08f;"
          horiz-adv-x="1024" d=" M821.248 766.4C906.176 681.451 908.651 545.259 828.629 457.344L828.779 457.131L542.165 170.539A42.666667 42.666667 0 0 0 481.835 170.539L202.752 449.6C115.285 537.067 115.285 678.933 202.752 766.4C285.952 849.557 418.24 853.653 506.261 778.667L511.808 773.739L512 773.952L512.192 773.76C600.085 853.803 736.299 851.328 821.248 766.4zM573.312 713.899L567.275 708.523L513.621 654.869L453.717 711.253A138.666667 138.666667 0 0 1 263.104 509.952L268.181 505.109L289.088 483.947L512 261.056L763.051 512.085L765.525 514.773A138.666667 138.666667 0 0 1 764.331 702.507L760.917 706.048A138.688 138.688 0 0 1 573.312 713.899z" />
        <glyph
          glyph-name="zlj-want"
          unicode="&#xe090;"
          horiz-adv-x="1024" d=" M821.248 766.4C906.176 681.451 908.651 545.259 828.629 457.344L828.779 457.131L542.165 170.539A42.666667 42.666667 0 0 0 481.835 170.539L202.752 449.6C115.285 537.067 115.285 678.933 202.752 766.4C285.952 849.557 418.24 853.653 506.261 778.667L511.808 773.739L512 773.952L512.192 773.76C600.085 853.803 736.299 851.328 821.248 766.4z" />
        <glyph
          glyph-name="zlj-watch"
          unicode="&#xe091;"
          horiz-adv-x="1024" d=" M586.396 951.884C623.772 951.884 656.406 926.507 665.756 890.221L687.482 805.719H694.138C759.519 805.719 812.522 752.538 812.522 686.957V321.523C812.522 255.942 759.519 202.761 694.138 202.761H683.364L665.756 134.265A82.009043 82.009043 0 0 0 586.396 72.58H437.604A82.009043 82.009043 0 0 0 358.244 134.242L340.614 202.761H329.862C264.481 202.761 211.478 255.942 211.478 321.523V686.957C211.478 752.538 264.481 805.719 329.862 805.719H336.518L358.244 890.199A82.03130400000002 82.03130400000002 0 0 0 433.152 951.773L437.604 951.884zM639.466 202.761H384.512L399.405 144.905A39.490783 39.490783 0 0 1 437.604 115.209H586.396C604.383 115.209 620.099 127.43 624.595 144.905L639.466 202.761zM694.138 763.067H329.862A76.02087 76.02087 0 0 1 253.974 686.935V321.523A76.02087 76.02087 0 0 1 329.884 245.391L368.506 245.413L373.226 246.637L373.537 245.413H694.138A76.02087 76.02087 0 0 1 770.026 321.523V686.957A76.02087 76.02087 0 0 1 694.116 763.09zM512 683.93C610.905 683.93 691.089 603.479 691.089 504.262C691.089 405.024 610.905 324.595 512 324.595S332.911 405.024 332.911 504.24C332.911 603.479 413.095 683.93 512 683.93zM512 641.3C436.558 641.3 375.407 579.949 375.407 504.262S436.536 367.202 512 367.202C587.442 367.202 648.593 428.553 648.593 504.24S587.464 641.278 512 641.278zM586.396 909.277H437.604C419.617 909.277 403.901 897.056 399.405 879.581L380.394 805.741H643.584L624.595 879.581A39.490783 39.490783 0 0 1 589.735 909.121L586.396 909.277z" />
        <glyph
          glyph-name="zlj-check"
          unicode="&#xe093;"
          horiz-adv-x="1024" d=" M512 938.667C747.648 938.667 938.667 747.648 938.667 512S747.648 85.333 512 85.333S85.333 276.352 85.333 512S276.352 938.667 512 938.667zM740.416 663.915A21.333333 21.333333 0 0 1 712.256 665.707L710.251 663.915L469.333 423.04L335.083 557.269A21.333333 21.333333 0 0 1 306.923 559.061L304.917 557.269L274.752 527.104A21.333333 21.333333 0 0 1 272.96 498.944L274.752 496.939L424.085 347.605L427.157 344.725A64 64 0 0 1 511.509 344.725L514.581 347.605L770.581 603.605A21.333333 21.333333 0 0 1 772.373 631.765L770.581 633.771L740.416 663.936z" />
        <glyph
          glyph-name="zlj-close-text"
          unicode="&#xe094;"
          horiz-adv-x="1024" d=" M512 938.667C747.648 938.667 938.667 747.648 938.667 512S747.648 85.333 512 85.333S85.333 276.352 85.333 512S276.352 938.667 512 938.667zM356.416 727.915A21.333333 21.333333 0 0 1 326.251 727.915L296.085 697.749A21.333333 21.333333 0 0 1 296.085 667.584L451.627 512L296.064 356.416A21.333333 21.333333 0 0 1 296.064 326.251L326.229 296.085A21.333333 21.333333 0 0 1 356.395 296.085L512 451.627L667.584 296.064A21.333333 21.333333 0 0 1 697.749 296.064L727.915 326.229A21.333333 21.333333 0 0 1 727.915 356.395L572.373 512L727.936 667.584A21.333333 21.333333 0 0 1 727.936 697.749L697.771 727.915A21.333333 21.333333 0 0 1 667.605 727.915L512 572.373L356.416 727.936z" />
        <glyph
          glyph-name="zlj-info"
          unicode="&#xe095;"
          horiz-adv-x="1024" d=" M512 870.4C709.939 870.4 870.4 709.939 870.4 512S709.939 153.6 512 153.6S153.6 314.061 153.6 512S314.061 870.4 512 870.4zM512 793.6C356.48 793.6 230.4 667.52 230.4 512S356.48 230.4 512 230.4S793.6 356.48 793.6 512S667.52 793.6 512 793.6zM512 384A51.2 51.2 0 1 0 512 281.6A51.2 51.2 0 0 0 512 384zM512 729.6A140.8 140.8 0 0 0 652.8 588.8C652.8 556.288 641.357 528.282 619.443 499.123L614.579 493.03L603.648 480.307L549.299 419.635L541.645 410.803A38.4 38.4 0 1 0 482.355 459.597L487.219 465.357L505.958 486.4L541.338 525.722L551.629 537.472L556.416 543.206L558.054 545.254C570.752 562.176 576 575.002 576 588.8A64 64 0 0 1 448.128 592.998L448 588.8A38.4 38.4 0 0 0 371.2 588.8A140.8 140.8 0 0 0 512 729.6z" />
        <glyph
          glyph-name="zlj-next-o"
          unicode="&#xe096;"
          horiz-adv-x="1024" d=" M476.885 699.051L491.755 684.16L491.968 683.947L641.301 534.613L643.499 532.203A32 32 0 0 0 641.301 489.365L476.885 324.949A21.333333 21.333333 0 0 0 446.699 324.949L431.616 340.032A21.333333 21.333333 0 0 0 431.616 370.219L446.507 385.109L446.72 385.301L573.397 512L446.677 638.72L431.595 653.781A21.333333 21.333333 0 0 0 431.595 683.968L446.677 699.051A21.333333 21.333333 0 0 0 476.864 699.051z" />
        <glyph
          glyph-name="zlj-uncheck"
          unicode="&#xe097;"
          horiz-adv-x="1024" d=" M938.667 512C938.667 276.352 747.648 85.333 512 85.333S85.333 276.352 85.333 512S276.352 938.667 512 938.667S938.667 747.648 938.667 512zM853.333 512C853.333 700.523 700.523 853.333 512 853.333S170.667 700.523 170.667 512S323.477 170.667 512 170.667S853.333 323.477 853.333 512z" />
        <glyph
          glyph-name="hunter-info"
          unicode="&#xe098;"
          horiz-adv-x="1024" d=" M512 585.173A27.52 27.52 0 1 1 484.48 612.48A27.306667 27.306667 0 0 1 512 585.173zM532.053 561.28L524.8 424.32A46.933333 46.933333 0 0 1 524.8 405.973L530.347 400.427C533.973 398.72 535.68 396.8 533.973 400.427A6.826667 6.826667 0 0 1 539.52 402.347A46.293333 46.293333 0 0 0 510.08 378.453A18.346667 18.346667 0 0 0 493.653 380.373A21.333333 21.333333 0 0 0 484.48 393.173V409.6L490.667 506.453A42.666667 42.666667 0 0 1 490.667 527.787A12.586667 12.586667 0 0 1 483.413 538.88C481.493 538.88 479.787 540.587 477.867 540.587L529.067 560.64zM512 731.947A219.52000000000004 219.52000000000004 0 1 1 731.52 512A219.52000000000004 219.52000000000004 0 0 1 512 731.52zM512 768A256 256 0 1 0 256 512A256 256 0 0 0 512 768z" />
        <glyph
          glyph-name="hunter-want-o"
          unicode="&#xe099;"
          horiz-adv-x="1024" d=" M620.16 689.28A81.706667 81.706667 0 0 0 684.16 607.36A19.413333000000005 19.413333000000005 0 0 0 666.88 586.027H665.387A19.2 19.2 0 0 0 646.187 603.52A56.106667 56.106667 0 0 1 608.64 650.24A21.333333 21.333333 0 0 0 597.333 674.987A21.333333 21.333333 0 0 0 620.16 689.28zM366.72 729.6C293.12 705.493 260.053 619.52 285.44 537.6A316.586667 316.586667 0 0 1 358.827 418.773A967.4666669999999 967.4666669999999 0 0 1 499.627 304L512 295.893L524.373 304A997.3333330000002 997.3333330000002 0 0 1 652.373 406.827L664.107 418.133A314.24 314.24 0 0 1 737.707 536.533C763.947 619.733 730.24 705.707 656.64 729.813A131.20000000000002 131.20000000000002 0 0 1 551.253 718.72L545.92 715.52L512 693.333L477.653 714.667A130.773333 130.773333 0 0 1 366.72 729.6zM512 769.28A194.773333 194.773333 0 0 0 676.907 790.613C795.307 752 832 621.227 799.147 517.333A381.866667 381.866667 0 0 0 710.187 373.333A1045.333333 1045.333333 0 0 0 545.28 241.067L523.947 227.413A21.333333 21.333333 0 0 0 512.427 224.213A21.333333 21.333333 0 0 0 501.12 227.413L494.08 231.68A1042.346667 1042.346667 0 0 0 314.667 373.333A379.946667 379.946667 0 0 0 225.493 516.693C192.427 621.227 229.12 751.36 347.52 790.613A194.56000000000003 194.56000000000003 0 0 0 512 769.28z" />
        <glyph
          glyph-name="hunter-want"
          unicode="&#xe09a;"
          horiz-adv-x="1024" d=" M500.907 227.2A21.333333 21.333333 0 0 1 512.213 224A21.333333 21.333333 0 0 1 523.733 227.2L545.067 240.853A1045.333333 1045.333333 0 0 1 709.973 373.12A381.866667 381.866667 0 0 1 798.933 517.12C831.787 621.013 795.093 751.787 676.693 790.4A193.92000000000002 193.92000000000002 0 0 1 527.36 778.027A33.92 33.92 0 0 0 496.64 778.027A193.493333 193.493333 0 0 1 347.307 790.4C228.48 751.787 192 621.013 224.853 516.48A379.946667 379.946667 0 0 1 314.027 373.12A1042.346667 1042.346667 0 0 1 493.44 231.467zM666.88 585.813H663.253A19.2 19.2 0 0 0 646.187 603.093A56.106667 56.106667 0 0 1 608.64 649.813A21.333333 21.333333 0 0 0 597.333 674.987A21.333333 21.333333 0 0 0 621.227 689.28A81.706667 81.706667 0 0 0 685.227 607.36A19.413333000000005 19.413333000000005 0 0 0 666.88 585.813z" />
        <glyph
          glyph-name="hunter-yuan"
          unicode="&#xe09b;"
          horiz-adv-x="1024" d=" M853.333 938.667H661.333L512.427 694.613L362.667 938.667H170.667L397.227 576H213.333V448H426.667V341.333H213.333V213.333H426.667V85.333H597.333V213.333H810.667V341.333H597.333V448H810.667V576H627.2L853.333 938.667z" />
        <glyph
          glyph-name="hunter-back"
          unicode="&#xe06c;"
          horiz-adv-x="1024" d=" M530.56 891.733A10.879999999999999 10.879999999999999 0 0 0 539.307 896H607.787A10.666666666666666 10.666666666666666 0 0 0 618.667 885.333A11.52 11.52 0 0 0 616.533 878.933L333.44 512L616.533 145.067A11.52 11.52 0 0 0 618.667 138.667A10.666666666666666 10.666666666666666 0 0 0 607.787 128H539.307A10.879999999999999 10.879999999999999 0 0 0 530.56 132.267L234.667 512z" />
        <glyph
          glyph-name="amplification"
          unicode="&#xe09c;"
          horiz-adv-x="1024" d=" M486.4 870.4C670.2 870.4 819.2 721.4 819.2 537.6C819.2 459.532 792.319 387.742 747.308 330.981L846.353 231.953C861.349 216.957 861.349 192.643 846.353 177.647C832.294 163.588 810.046 162.71 794.964 175.011L792.047 177.647L693.019 276.692C636.258 231.681 564.468 204.8 486.4 204.8C302.6 204.8 153.6 353.8 153.6 537.6C153.6 721.4 302.6 870.4 486.4 870.4zM486.4 793.6C345.015 793.6 230.4 678.985 230.4 537.6C230.4 396.215 345.015 281.6 486.4 281.6C627.785 281.6 742.4 396.215 742.4 537.6C742.4 678.985 627.785 793.6 486.4 793.6z" />
        <glyph
          glyph-name="arrow-left"
          unicode="&#xe09d;"
          horiz-adv-x="1024" d=" M471.294 910.353C486.29 895.357 486.29 871.043 471.294 856.047L118.298 503.066L471.294 150.072C486.29 135.076 486.29 110.762 471.294 95.766C456.297 80.77 431.984 80.77 416.988 95.766L36.847 475.906C21.851 490.903 21.851 515.216 36.847 530.212L416.988 910.353C431.984 925.349 456.297 925.349 471.294 910.353z" />
        <glyph
          glyph-name="bell"
          unicode="&#xe0a0;"
          horiz-adv-x="1024" d=" M524.8 972.8C587.865 972.8 640 924.07 640 862.616L640 862.616L640.023 814.511C759.327 772.333 844.8 658.548 844.8 524.8L844.8 294.4L883.2 294.4C904.408 294.4 921.6 277.208 921.6 256C921.6 234.792 904.408 217.6 883.2 217.6L678.4 217.6L678.4 204.8C678.4 121.897 612.721 54.334 530.558 51.306L524.8 51.2C439.969 51.2 371.2 119.969 371.2 204.8L371.2 204.8L371.2 217.6L166.4 217.6C145.192 217.6 128 234.792 128 256C128 277.208 145.192 294.4 166.4 294.4L204.8 294.4L204.8 524.8C204.8 658.558 290.285 772.349 409.602 814.52L409.6 862.616C409.6 924.07 461.735 972.8 524.8 972.8zM601.6 217.6L448 217.6L448 204.8C448 163.899 479.972 130.466 520.287 128.13L524.8 128C567.215 128 601.6 162.385 601.6 204.8L601.6 204.8L601.6 217.6zM537.6 755.2L512 755.2C384.754 755.2 281.6 652.046 281.6 524.8L281.6 294.4L768 294.4L768 524.8C768 652.046 664.846 755.2 537.6 755.2zM524.8 896C503.034 896 486.4 880.452 486.4 862.616L486.4 862.616L486.414 830.95C494.85 831.645 503.384 832 512 832L537.6 832C546.225 832 554.767 831.645 563.212 830.948L563.2 862.616C563.2 880.452 546.566 896 524.8 896z" />
        <glyph
          glyph-name="camera"
          unicode="&#xe0a1;"
          horiz-adv-x="1024" d=" M670.55 933.867C701.716 933.867 729.791 915.033 741.612 886.197L769.075 819.2L875.789 819.2C932.343 819.2 978.189 773.354 978.189 716.8L978.189 192C978.189 135.446 932.343 89.6 875.789 89.6L148.211 89.6C91.657 89.6 45.811 135.446 45.811 192L45.811 716.8C45.811 773.354 91.657 819.2 148.211 819.2L254.925 819.2L282.388 886.197C294.209 915.033 322.284 933.867 353.45 933.867L670.55 933.867zM670.55 857.067L353.45 857.067L306.445 742.4L148.211 742.4C134.072 742.4 122.611 730.938 122.611 716.8L122.611 192C122.611 177.862 134.072 166.4 148.211 166.4L875.789 166.4C889.928 166.4 901.389 177.862 901.389 192L901.389 716.8C901.389 730.938 889.928 742.4 875.789 742.4L717.555 742.4L670.55 857.067zM512 691.2C625.108 691.2 716.8 599.508 716.8 486.4C716.8 373.292 625.108 281.6 512 281.6C398.892 281.6 307.2 373.292 307.2 486.4C307.2 599.508 398.892 691.2 512 691.2zM512 614.4C441.308 614.4 384 557.092 384 486.4C384 415.708 441.308 358.4 512 358.4C582.692 358.4 640 415.708 640 486.4C640 557.092 582.692 614.4 512 614.4z" />
        <glyph
          glyph-name="cart"
          unicode="&#xe0a2;"
          horiz-adv-x="1024" d=" M304.281 192C339.627 192 368.281 163.346 368.281 128C368.281 92.654 339.627 64 304.281 64C268.935 64 240.281 92.654 240.281 128C240.281 163.346 268.935 192 304.281 192zM780.8 192C816.146 192 844.8 163.346 844.8 128C844.8 92.654 816.146 64 780.8 64C745.454 64 716.8 92.654 716.8 128C716.8 163.346 745.454 192 780.8 192zM121.747 972.8C166.524 972.8 204.426 939.744 210.515 895.384L210.515 895.384L219.215 832L848.836 832C912.46 832 964.036 780.423 964.036 716.8C964.036 707.381 962.881 697.998 960.597 688.86L960.597 688.86L875.845 349.851C860.175 287.171 803.857 243.2 739.248 243.2L739.248 243.2L345.305 243.2C274.942 243.2 215.381 295.144 205.813 364.854L205.813 364.854L134.429 884.941C133.559 891.278 128.144 896 121.747 896L121.747 896L89.6 896C68.392 896 51.2 913.192 51.2 934.4C51.2 955.608 68.392 972.8 89.6 972.8L89.6 972.8zM848.836 755.2L229.756 755.2L281.9 375.297C286.249 343.611 313.322 320 345.305 320L345.305 320L739.248 320C768.616 320 794.215 339.987 801.338 368.478L801.338 368.478L886.09 707.487C886.851 710.533 887.236 713.66 887.236 716.8C887.236 738.008 870.044 755.2 848.836 755.2L848.836 755.2z" />
        <glyph
          glyph-name="check"
          unicode="&#xe0a3;"
          horiz-adv-x="1024" d=" M512 921.6C738.216 921.6 921.6 738.216 921.6 512C921.6 285.784 738.216 102.4 512 102.4C285.784 102.4 102.4 285.784 102.4 512C102.4 738.216 285.784 921.6 512 921.6zM759.117 645.536C745.787 658.866 724.175 658.866 710.846 645.536L710.846 645.536L493.594 428.317L356.852 565.083C343.522 578.413 321.91 578.413 308.58 565.083C295.25 551.753 295.25 530.141 308.58 516.811L308.58 516.811L469.486 355.905C482.816 342.575 504.428 342.575 517.758 355.905L517.758 355.905L759.117 597.264C772.447 610.594 772.447 632.206 759.117 645.536z" />
        <glyph
          glyph-name="close-text"
          unicode="&#xe0a4;"
          horiz-adv-x="1024" d=" M512 1024C794.784 1024 1024 794.784 1024 512S794.784 0 512 0S0 229.216 0 512S229.216 1024 512 1024zM751.936 751.936A54.88000000000001 54.88000000000001 0 0 1 674.368 751.936L512 589.568L349.632 751.936A54.88000000000001 54.88000000000001 0 0 1 272.064 674.368L434.432 512L272.064 349.632L268.288 345.472A54.848 54.848 0 0 1 272.064 272.064L276.224 268.288C297.76 250.72 329.568 251.968 349.632 272.064L512 434.432L674.368 272.064A54.88000000000001 54.88000000000001 0 0 1 751.936 349.632L589.568 512L751.936 674.368L755.712 678.528A54.848 54.848 0 0 1 751.936 751.936z" />
        <glyph
          glyph-name="collection"
          unicode="&#xe0a5;"
          horiz-adv-x="1024" d=" M516.823 831.38C570.222 886.567 634.738 921.6 702.378 921.6C854.4 921.6 977.92 800.148 977.92 650.036C977.92 529.952 901.969 394.119 781.406 266.558L767.647 252.245C670.758 153.139 562.914 77.761 510.708 77.761C456.015 77.761 340.262 160.477 240.022 266.532C119.465 394.084 43.52 529.922 43.52 650.036C43.52 821.699 155.59 921.6 319.038 921.6C386.686 921.6 451.208 886.565 504.6 831.38L510.711 824.924L516.823 831.38zM702.378 844.8C647.189 844.8 587.614 804.08 541.566 741.909L510.704 700.242L479.848 741.913C433.816 804.078 374.239 844.8 319.038 844.8C196.164 844.8 120.32 777.191 120.32 650.036C120.32 554.067 187.497 433.911 295.837 319.286C340.781 271.734 389.933 228.565 434.103 197.001L444.651 189.636C477.394 167.31 503.456 154.561 510.708 154.561C517.958 154.561 544.021 167.313 576.766 189.643L587.315 197.009C631.487 228.578 680.642 271.754 725.591 319.312C833.936 433.945 901.12 554.099 901.12 650.036C901.12 757.44 812.272 844.8 702.378 844.8z" />
        <glyph
          glyph-name="comment-o"
          unicode="&#xe0a6;"
          horiz-adv-x="1024" d=" M512 960C759.424 960 960 759.424 960 512C960 264.576 759.424 64 512 64L512 64L217.6 64C132.769 64 64 132.769 64 217.6L64 217.6L64 512L64.077 520.417C68.565 763.956 267.388 960 512 960zM512 883.2C309.595 883.2 144.587 721.028 140.864 519.002L140.864 519.002L140.797 511.293L140.797 217.6C140.797 175.185 175.185 140.8 217.6 140.8L217.6 140.8L512 140.8C717.008 140.8 883.2 306.992 883.2 512C883.2 717.008 717.008 883.2 512 883.2zM691.2 563.2C719.477 563.2 742.4 540.277 742.4 512C742.4 483.723 719.477 460.8 691.2 460.8C662.923 460.8 640 483.723 640 512C640 540.277 662.923 563.2 691.2 563.2zM512 563.2C540.277 563.2 563.2 540.277 563.2 512C563.2 483.723 540.277 460.8 512 460.8C483.723 460.8 460.8 483.723 460.8 512C460.8 540.277 483.723 563.2 512 563.2zM332.8 563.2C361.077 563.2 384 540.277 384 512C384 483.723 361.077 460.8 332.8 460.8C304.523 460.8 281.6 483.723 281.6 512C281.6 540.277 304.523 563.2 332.8 563.2z" />
        <glyph
          glyph-name="delete"
          unicode="&#xe0a7;"
          horiz-adv-x="1024" d=" M640 972.8C703.623 972.8 755.2 921.223 755.2 857.6L755.2 857.6L755.2 819.2L896 819.2C917.208 819.2 934.4 802.008 934.4 780.8C934.4 760.84 919.171 744.437 899.698 742.576L896 742.4L857.6 742.4L857.6 192C857.6 116.135 797.599 54.284 722.463 51.312L716.8 51.2L307.2 51.2C229.438 51.2 166.4 114.238 166.4 192L166.4 192L166.4 742.4L128 742.4C106.792 742.4 89.6 759.592 89.6 780.8C89.6 800.76 104.829 817.163 124.302 819.024L128 819.2L268.8 819.2L268.8 857.6C268.8 919.405 317.472 969.843 378.577 972.675L384 972.8zM780.8 742.4L243.2 742.4L243.2 192C243.2 158.068 269.607 130.303 302.992 128.136L302.992 128.136L307.2 128L716.8 128C752.146 128 780.8 156.654 780.8 192L780.8 192L780.8 742.4zM422.4 640C443.608 640 460.8 622.808 460.8 601.6L460.8 268.8C460.8 247.592 443.608 230.4 422.4 230.4C401.192 230.4 384 247.592 384 268.8L384 601.6C384 622.808 401.192 640 422.4 640zM601.6 640C622.808 640 640 622.808 640 601.6L640 268.8C640 247.592 622.808 230.4 601.6 230.4C580.392 230.4 563.2 247.592 563.2 268.8L563.2 601.6C563.2 622.808 580.392 640 601.6 640zM640 896L384 896C362.792 896 345.6 878.808 345.6 857.6L345.6 857.6L345.6 819.2L678.4 819.2L678.4 857.6C678.4 877.56 663.171 893.963 643.698 895.824L643.698 895.824L640 896z" />
        <glyph
          glyph-name="dlike"
          unicode="&#xe0a8;"
          horiz-adv-x="1024" d=" M456.304 850.732C489.238 907.775 562.179 927.319 619.222 894.385C625.776 890.602 631.954 886.202 637.675 881.248L637.675 881.248L649.665 870.862C696.29 830.476 710.854 764.879 686.934 709.051L686.934 709.051L684.621 704.026L776.187 704C852.052 704 913.903 643.999 916.875 568.863L916.875 568.863L916.987 563.2C916.987 555.856 916.412 548.523 915.268 541.268L915.268 541.268L866.825 234.068C856.031 165.619 797.038 115.2 727.744 115.2L727.744 115.2L281.6 115.2C203.838 115.2 140.8 178.238 140.8 256L140.8 256L140.8 549.033C140.8 626.795 203.838 689.833 281.6 689.833L281.6 689.833L363.341 689.766zM577.388 829.657C557.67 838.786 533.889 831.513 522.812 812.327L522.812 812.327L409.114 615.465L388.583 614.162L369.587 613.033L281.6 613.033C246.254 613.033 217.6 584.38 217.6 549.033L217.6 549.033L217.6 256C217.6 220.654 246.254 192 281.6 192L281.6 192L727.744 192C759.241 192 786.056 214.918 790.963 246.031L790.963 246.031L839.406 553.231C839.926 556.528 840.187 559.862 840.187 563.2C840.187 598.546 811.533 627.2 776.183 627.2L776.183 627.2L556.227 627.225L613.824 734.083C628.039 760.47 622.037 793.188 599.382 812.811L599.382 812.811L587.392 823.197C585.355 824.961 583.155 826.527 580.822 827.875L580.822 827.875zM345.6 537.6C366.808 537.6 384 520.408 384 499.2L384 320C384 298.792 366.808 281.6 345.6 281.6C324.392 281.6 307.2 298.792 307.2 320L307.2 499.2C307.2 520.408 324.392 537.6 345.6 537.6z" />
        <glyph
          glyph-name="file"
          unicode="&#xe0a9;"
          horiz-adv-x="1024" d=" M430.72 921.6C461.889 921.6 490.818 905.403 507.108 878.83L528.623 843.745C531.503 844.435 534.509 844.8 537.6 844.8L537.6 844.8L775.314 844.8C847.679 844.8 908.8 793.605 908.8 726.756L908.8 726.756L908.833 635.657C947.074 613.52 972.8 572.164 972.8 524.8L972.8 217.6C972.8 146.908 915.492 89.6 844.8 89.6L179.2 89.6C108.508 89.6 51.2 146.908 51.2 217.6L51.2 793.6C51.2 862.432 105.531 918.575 173.648 921.482L179.2 921.6L430.72 921.6zM430.72 844.8L179.2 844.8C150.923 844.8 128 821.877 128 793.6L128 217.6C128 189.323 150.923 166.4 179.2 166.4L844.8 166.4C873.077 166.4 896 189.323 896 217.6L896 524.8C896 553.077 873.077 576 844.8 576L652.844 576C621.675 576 592.746 592.197 576.456 618.77L441.633 838.69C439.306 842.486 435.173 844.8 430.72 844.8zM575.053 768L641.931 658.91C644.258 655.114 648.391 652.8 652.844 652.8L832 652.8L832 726.756C832 746.873 810.211 766.081 779.92 767.865L775.314 768L575.053 768z" />
        <glyph
          glyph-name="foot"
          unicode="&#xe0aa;"
          horiz-adv-x="1024" d=" M822.986 518.396C822.986 262.083 669.323 40.596 542.195 40.596C417.023 40.596 344.232 89.646 342.022 294.841L341.97 304.574C341.97 514.77 200.714 518.396 184.276 632.255C167.837 746.114 312.041 813.577 415.067 827.487C712.73 867.677 822.986 722.583 822.986 518.396zM434.879 752.609L425.343 751.378L418.361 750.36C325.785 735.86 254.304 684.672 260.288 643.229C262.387 628.692 268.794 617.431 287.321 597.213L318.427 564.558L324.837 557.591C385.759 490.211 416.674 421.494 418.667 315.657L418.874 288.292L419.195 272.946C422.946 143.924 452.408 117.396 542.195 117.396C625.265 117.396 746.186 312.028 746.186 518.396C746.186 697.798 655.533 779.783 434.879 752.609zM368.261 949.757C512.807 991.205 665.253 967.042 788.841 886.61C806.616 875.042 811.647 851.254 800.079 833.48C788.511 815.705 764.724 810.673 746.949 822.241C641.825 890.657 512.35 911.179 389.43 875.932C369.044 870.086 347.779 881.874 341.933 902.26C336.087 922.646 347.875 943.911 368.261 949.757zM204.8 920.178C233.077 920.178 256 897.255 256 868.978C256 840.701 233.077 817.778 204.8 817.778C176.523 817.778 153.6 840.701 153.6 868.978C153.6 897.255 176.523 920.178 204.8 920.178z" />
        <glyph
          glyph-name="info"
          unicode="&#xe0ad;"
          horiz-adv-x="1024" d=" M512 987.429C774.583 987.429 987.429 774.583 987.429 512S774.583 36.571 512 36.571S36.571 249.417 36.571 512S249.417 987.429 512 987.429zM512 950.857C269.641 950.857 73.143 754.359 73.143 512S269.641 73.143 512 73.143S950.857 269.641 950.857 512S754.359 950.857 512 950.857zM506.99 296.082C521.179 296.082 533.687 291.913 543.744 281.893C552.887 272.713 557.934 261.01 557.934 246.784C557.934 231.79 552.923 220.087 543.744 210.944A53.211429 53.211429 0 0 0 506.99 196.718A51.2 51.2 0 0 0 471.077 210.907C461.056 220.928 456.887 232.631 456.887 246.821S461.056 272.713 471.077 281.893C481.097 291.913 492.8 296.082 506.99 296.082zM519.497 804.571C572.965 804.571 615.534 790.382 647.278 760.32C678.985 731.941 694.857 692.663 694.857 642.56C694.857 605.001 683.995 572.453 663.954 544.914C654.811 534.894 632.247 513.17 595.493 480.622C577.134 465.591 564.59 450.56 556.251 435.529C545.39 417.134 540.379 396.288 540.379 373.723V354.523H473.6V373.723C473.6 403.785 479.451 429.678 491.959 453.083C503.662 474.77 522.021 497.335 547.913 520.667C576.293 545.719 593.81 563.273 602.185 573.294C618.057 594.139 626.395 615.863 626.395 639.232C626.395 672.658 616.375 698.514 598.016 716.91C577.975 736.951 551.241 746.13 516.169 746.13C474.441 746.13 443.538 732.782 423.497 705.207C405.138 681.801 395.922 650.094 395.922 609.207H329.143C329.984 667.648 346.697 714.386 379.246 749.458C412.635 786.213 459.41 804.571 519.497 804.571z" />
        <glyph
          glyph-name="light"
          unicode="&#xe0ae;"
          horiz-adv-x="1024" d=" M601.6 119.855C622.808 119.855 640 102.662 640 81.455C640 60.247 622.808 43.055 601.6 43.055L422.4 43.055C401.192 43.055 384 60.247 384 81.455C384 102.662 401.192 119.855 422.4 119.855L601.6 119.855zM512 832C674.593 832 806.4 700.193 806.4 537.6C806.4 421.265 738.302 317.881 635.736 270.387L635.733 264.145C635.733 217.231 597.702 179.2 550.788 179.2L473.212 179.2C426.298 179.2 388.267 217.231 388.267 264.13L388.264 270.387L381.325 273.712C282.638 322.587 217.6 423.909 217.6 537.6C217.6 700.193 349.407 832 512 832zM512 755.2C391.823 755.2 294.4 657.777 294.4 537.6C294.4 444.64 353.232 362.856 439.452 332.376L465.043 323.329L465.067 264.145C465.067 259.647 468.714 256 473.212 256L550.788 256C555.286 256 558.933 259.647 558.933 264.161L558.957 323.329L584.548 332.376C670.768 362.856 729.6 444.64 729.6 537.6C729.6 657.777 632.177 755.2 512 755.2zM130.327 512C149.607 512 165.236 496.371 165.236 477.091C165.236 457.811 149.607 442.182 130.327 442.182L60.509 442.182C41.229 442.182 25.6 457.811 25.6 477.091C25.6 496.371 41.229 512 60.509 512L130.327 512zM963.491 512C982.771 512 998.4 496.371 998.4 477.091C998.4 457.811 982.771 442.182 963.491 442.182L893.673 442.182C874.393 442.182 858.764 457.811 858.764 477.091C858.764 496.371 874.393 512 893.673 512L963.491 512zM195.674 850.819L245.043 801.45C258.676 787.817 258.676 765.714 245.043 752.081C231.41 738.448 209.307 738.448 195.674 752.081L146.305 801.45C132.672 815.083 132.672 837.186 146.305 850.819C159.938 864.452 182.041 864.452 195.674 850.819zM877.695 850.819C891.328 837.186 891.328 815.083 877.695 801.45L828.326 752.081C814.693 738.448 792.59 738.448 778.957 752.081C765.324 765.714 765.324 787.817 778.957 801.45L828.326 850.819C841.959 864.452 864.062 864.452 877.695 850.819zM512 1012.364C531.28 1012.364 546.909 996.734 546.909 977.455L546.909 907.636C546.909 888.357 531.28 872.727 512 872.727C492.72 872.727 477.091 888.357 477.091 907.636L477.091 977.455C477.091 996.734 492.72 1012.364 512 1012.364z" />
        <glyph
          glyph-name="like"
          unicode="&#xe0af;"
          horiz-adv-x="1024" d=" M456.304 850.732C489.238 907.775 562.179 927.319 619.222 894.385C625.776 890.602 631.954 886.202 637.675 881.248L637.675 881.248L649.665 870.862C696.29 830.476 710.854 764.879 686.934 709.052L686.934 709.052L684.621 704.026L776.187 704C852.052 704 913.903 643.999 916.875 568.863L916.875 568.863L916.987 563.2C916.987 555.856 916.412 548.523 915.268 541.268L915.268 541.268L866.825 234.068C856.031 165.619 797.038 115.2 727.744 115.2L727.744 115.2L281.6 115.2C203.838 115.2 140.8 178.238 140.8 256L140.8 256L140.8 549.033C140.8 626.795 203.838 689.833 281.6 689.833L281.6 689.833L363.315 689.766zM345.6 537.6C324.392 537.6 307.2 520.408 307.2 499.2L307.2 499.2L307.2 320C307.2 298.792 324.392 281.6 345.6 281.6C366.808 281.6 384 298.792 384 320L384 320L384 499.2C384 520.408 366.808 537.6 345.6 537.6z" />
        <glyph
          glyph-name="message"
          unicode="&#xe0b0;"
          horiz-adv-x="1024" d=" M832 921.6C909.762 921.6 972.8 858.562 972.8 780.8L972.8 371.2C972.8 293.438 909.762 230.4 832 230.4L714.909 230.4C698.531 230.4 682.777 224.121 670.888 212.856L573.623 120.691C539.067 87.946 484.937 87.942 450.376 120.681L353.062 212.863C341.175 224.124 325.423 230.4 309.049 230.4L192 230.4C114.238 230.4 51.2 293.438 51.2 371.2L51.2 780.8C51.2 858.562 114.238 921.6 192 921.6L832 921.6zM832 844.8L192 844.8C156.654 844.8 128 816.146 128 780.8L128 371.2C128 335.854 156.654 307.2 192 307.2L309.049 307.2C345.072 307.2 379.726 293.393 405.878 268.619L503.192 176.437C508.129 171.76 515.862 171.761 520.799 176.438L618.064 268.604C644.218 293.387 678.878 307.2 714.909 307.2L832 307.2C867.346 307.2 896 335.854 896 371.2L896 780.8C896 816.146 867.346 844.8 832 844.8zM716.8 499.2C738.008 499.2 755.2 482.008 755.2 460.8C755.2 439.592 738.008 422.4 716.8 422.4L307.2 422.4C285.992 422.4 268.8 439.592 268.8 460.8C268.8 482.008 285.992 499.2 307.2 499.2L716.8 499.2zM716.8 704C738.008 704 755.2 686.808 755.2 665.6C755.2 644.392 738.008 627.2 716.8 627.2L307.2 627.2C285.992 627.2 268.8 644.392 268.8 665.6C268.8 686.808 285.992 704 307.2 704L716.8 704z" />
        <glyph
          glyph-name="more"
          unicode="&#xe0b1;"
          horiz-adv-x="1024" d=" M140.8 588.8C190.285 588.8 230.4 548.685 230.4 499.2C230.4 449.715 190.285 409.6 140.8 409.6C91.315 409.6 51.2 449.715 51.2 499.2C51.2 548.685 91.315 588.8 140.8 588.8zM512 588.8C561.485 588.8 601.6 548.685 601.6 499.2C601.6 449.715 561.485 409.6 512 409.6C462.515 409.6 422.4 449.715 422.4 499.2C422.4 548.685 462.515 588.8 512 588.8zM883.2 588.8C932.685 588.8 972.8 548.685 972.8 499.2C972.8 449.715 932.685 409.6 883.2 409.6C833.715 409.6 793.6 449.715 793.6 499.2C793.6 548.685 833.715 588.8 883.2 588.8z" />
        <glyph
          glyph-name="pay"
          unicode="&#xe0b2;"
          horiz-adv-x="1024" d=" M512 973.176C549.6 973.176 586.64 968.665 622.538 959.824C654.372 951.984 685.167 940.772 714.471 926.417C741.948 912.958 768.005 896.787 792.266 878.173C809.092 865.264 812.267 841.159 799.357 824.333C786.448 807.507 762.343 804.332 745.517 817.241C725.291 832.759 703.575 846.235 680.686 857.448C656.291 869.398 630.665 878.727 604.173 885.252C574.273 892.616 543.399 896.376 512 896.376C299.923 896.376 128 724.454 128 512.376C128 300.299 299.923 128.376 512 128.376C724.077 128.376 896 300.299 896 512.376L895.851 523.18L895.851 523.18L816.467 478.852C797.952 468.51 774.558 475.136 764.216 493.651C754.483 511.077 759.779 532.824 775.873 543.944L779.015 545.901L910.92 619.545L910.92 619.545L912.806 620.422L912.806 620.422L915.175 621.365L915.175 621.365L917.228 622.039L917.228 622.039L920.542 622.865L920.542 622.865L923.274 623.313L923.274 623.313L926.791 623.598L926.791 623.598L929.627 623.594L929.627 623.594L934.216 623.133L934.216 623.133L937.624 622.426L937.624 622.426L939.979 621.753L939.979 621.753L942.98 620.637L942.98 620.637L945.446 619.498L945.446 619.498L948.963 617.481L948.963 617.481L951.45 615.734L951.45 615.734L954 613.617L954 613.617L956.607 610.998L956.607 610.998L958.788 608.368L958.788 608.368L960.786 605.459L960.786 605.459L962.55 602.286L962.55 602.286L964.258 598.283L964.258 598.283L965.302 594.936L965.976 591.79C970.506 565.73 972.8 539.19 972.8 512.376C972.8 257.884 766.493 51.576 512 51.576C257.507 51.576 51.2 257.884 51.2 512.376C51.2 766.869 257.507 973.176 512 973.176zM356.461 705.166L359.344 707.839C374.586 720.605 396.825 719.521 410.766 705.939L413.439 703.056L501.093 598.4L517.674 598.4L611.278 703.887C625.354 719.75 649.624 721.198 665.487 707.122C680.358 693.926 682.561 671.77 671.18 655.981L668.722 652.913L620.339 598.418L640 598.4C659.96 598.4 676.363 583.171 678.224 563.698L678.4 560C678.4 540.04 663.171 523.637 643.698 521.776L640 521.6L550.4 521.618L550.4 470.418L640 470.4C659.96 470.4 676.363 455.171 678.224 435.698L678.4 432C678.4 412.04 663.171 395.637 643.698 393.776L640 393.6L550.4 393.618L550.4 325.326C550.4 305.366 535.171 288.962 515.698 287.102L512 286.926C492.04 286.926 475.637 302.155 473.776 321.628L473.6 325.326L473.6 393.618L384 393.6C364.04 393.6 347.637 408.829 345.776 428.302L345.599 432C345.599 451.96 360.829 468.363 380.302 470.224L384 470.4L473.6 470.418L473.6 521.618L384 521.6C364.04 521.6 347.637 536.829 345.776 556.302L345.599 560C345.599 579.96 360.829 596.363 380.302 598.224L384 598.4L400.922 598.418L354.561 653.744C341.795 668.986 342.879 691.225 356.461 705.166L359.344 707.839L356.461 705.166z" />
        <glyph
          glyph-name="repost"
          unicode="&#xe0b4;"
          horiz-adv-x="1024" d=" M557.167 895.876C503.501 893.238 460.8 848.891 460.8 794.571L460.8 754.15L456.742 753.67C242.251 727.298 76.8 549.546 76.8 334.643C76.8 275.671 89.281 218.349 113.14 165.499C121.866 146.169 144.609 137.574 163.939 146.3C172.859 150.327 179.905 157.609 183.637 166.657L183.637 166.657L183.637 166.657L187.2 175.023C235.814 285.705 332.549 370.216 450.252 405.786L460.8 408.832L460.8 335.516C460.8 312.959 468.318 291.048 482.166 273.243C516.557 229.026 580.283 221.06 624.501 255.451L919.608 484.979C926.254 490.149 932.231 496.125 937.4 502.771C971.792 546.989 963.826 610.715 919.608 645.106L624.501 874.634C606.697 888.482 584.785 896 562.229 896L557.167 895.876zM562.229 819.2C567.706 819.2 573.027 817.374 577.35 814.012L872.457 584.484C883.195 576.133 885.129 560.659 876.778 549.922C875.523 548.308 874.071 546.857 872.457 545.602L577.35 316.074C566.613 307.723 551.139 309.657 542.788 320.394C539.426 324.717 537.6 330.038 537.6 335.515L537.605 501.62L493.022 494.348L483.154 492.639C352.35 468.648 238.222 394.581 164.411 289.99L157.952 280.627L156.454 290.799C154.56 305.234 153.6 319.87 153.6 334.643C153.6 521.066 307.13 674.14 500.381 680.065L537.607 681.206L537.6 794.573C537.6 808.173 548.627 819.2 562.229 819.2z" />
        <glyph
          glyph-name="scan"
          unicode="&#xe0b5;"
          horiz-adv-x="1024" d=" M870.4 371.2C890.36 371.2 906.763 355.971 908.624 336.498L908.8 332.8L908.8 204.8C908.8 156.965 871.314 117.885 824.116 115.333L819.2 115.2L204.8 115.2C156.965 115.2 117.885 152.686 115.333 199.884L115.2 204.8L115.2 332.8C115.2 354.008 132.392 371.2 153.6 371.2C173.56 371.2 189.963 355.971 191.824 336.498L192 332.8L192 204.8C192 198.516 196.528 193.29 202.499 192.206L204.8 192L819.2 192C825.484 192 830.71 196.528 831.794 202.499L832 204.8L832 332.8C832 354.008 849.192 371.2 870.4 371.2zM883.2 550.4C904.408 550.4 921.6 533.208 921.6 512C921.6 490.792 904.408 473.6 883.2 473.6L140.8 473.6C119.592 473.6 102.4 490.792 102.4 512C102.4 533.208 119.592 550.4 140.8 550.4L883.2 550.4zM819.2 908.8C867.035 908.8 906.115 871.314 908.667 824.116L908.8 819.2L908.8 691.2C908.8 669.992 891.608 652.8 870.4 652.8C850.44 652.8 834.037 668.029 832.176 687.502L832 691.2L832 819.2C832 825.484 827.472 830.71 821.501 831.794L819.2 832L204.8 832C198.516 832 193.29 827.472 192.206 821.501L192 819.2L192 691.2C192 669.992 174.808 652.8 153.6 652.8C133.64 652.8 117.237 668.029 115.376 687.502L115.2 691.2L115.2 819.2C115.2 867.035 152.686 906.115 199.884 908.667L204.8 908.8L819.2 908.8z" />
        <glyph
          glyph-name="service"
          unicode="&#xe0b6;"
          horiz-adv-x="1024" d=" M537.6 947.2C723.012 947.2 877.353 805.813 894.441 622.427C894.887 617.639 895.238 612.836 895.492 608.02C940.486 592.373 972.8 549.56 972.8 499.2L972.8 396.8C972.8 333.177 921.223 281.6 857.6 281.6L806.4 281.6C771.054 281.6 742.4 310.254 742.4 345.6L742.4 550.4C742.4 585.746 771.054 614.4 806.4 614.4L818.056 614.384C818.028 614.69 818 614.996 817.972 615.301C804.786 756.809 687.417 866.559 545.112 870.301L537.6 870.4L486.4 870.4C342.209 870.4 221.702 761.474 206.426 619.27L205.978 614.4L217.6 614.4C251.532 614.4 279.297 587.993 281.464 554.608L281.6 550.4L281.6 345.6C281.6 310.254 252.946 281.6 217.6 281.6L217.6 281.6L214.35 281.585C241.244 193.886 321.612 131.03 415.55 128.106L422.4 128L588.8 128C610.008 128 627.2 110.808 627.2 89.6C627.2 69.64 611.971 53.237 592.498 51.376L588.8 51.2L422.4 51.2C281.782 51.2 161.806 150.47 134.001 286.207C86.157 300.207 51.2 344.421 51.2 396.8L51.2 396.8L51.2 499.2C51.2 549.56 83.514 592.373 128.539 608.034C128.852 614.529 129.372 621.016 130.065 627.473C149.227 805.848 298.251 942.99 478.079 947.105L486.4 947.2L537.6 947.2zM857.6 537.6L819.2 537.6L819.2 358.4L857.6 358.4C878.808 358.4 896 375.592 896 396.8L896 499.2C896 520.408 878.808 537.6 857.6 537.6zM204.8 537.6L166.4 537.6C145.192 537.6 128 520.408 128 499.2L128 499.2L128 396.8C128 375.592 145.192 358.4 166.4 358.4L166.4 358.4L204.8 358.4L204.8 537.6z" />
        <glyph
          glyph-name="setting"
          unicode="&#xe0b7;"
          horiz-adv-x="1024" d=" M601.842 998.4L636.266 988.021C685.278 973.244 731.46 950.488 773.173 920.761L800.811 901.064L784.66 871.216C765.777 836.317 769.194 792.785 794.185 761.341C818.631 730.583 858.244 718.255 894.706 728.919L928.232 738.724L941.159 706.275C960.146 658.614 971.548 607.949 974.764 555.836L976.88 521.562L943.055 515.644C905.386 509.055 874.635 479.974 865.791 440.949C856.868 401.565 872.327 361.155 903.881 338.298L931.429 318.342L914.942 288.588C889.961 243.508 857.987 202.746 820.36 167.936L794.525 144.035L768.469 167.694C739.749 193.773 698.33 199.966 663.266 182.541C628.228 165.129 607.219 127.946 609.334 88.582L611.179 54.229L577.234 48.634C552.306 44.525 526.905 42.448 501.238 42.448C475.608 42.448 450.22 44.519 425.242 48.612L391.24 54.184L393.109 88.59C395.247 127.949 374.25 165.128 339.209 182.541C304.146 199.965 262.721 193.775 233.988 167.703L207.937 144.065L182.111 167.95C144.472 202.76 112.497 243.534 87.532 288.644L71.061 318.405L98.618 338.347C130.149 361.164 145.607 401.567 136.684 440.948C127.841 479.975 97.089 509.054 59.427 515.64L25.6 521.555L27.714 555.829C30.927 607.941 42.326 658.605 61.318 706.3L74.251 738.776L107.796 728.944C144.237 718.262 183.844 730.582 208.29 761.341C233.279 792.783 236.704 836.322 217.838 871.229L201.716 901.058L229.32 920.748C270.995 950.476 317.181 973.239 366.209 988.021L399.675 998.111L412.858 965.739C427.671 929.365 462.346 905.327 501.238 905.327C539.909 905.327 574.438 929.095 588.912 963.9L601.842 998.4zM643.427 904.36L639.539 898.853C607.641 855.531 556.933 828.527 501.238 828.527C443.207 828.527 390.617 857.841 359.066 904.36C338.282 896.235 318.231 886.338 299.111 874.787C315.551 820.284 305.107 759.724 268.414 713.556C232.345 668.173 177.458 644.95 122.334 648.769C115.48 626.863 110.459 604.331 107.345 581.356C158.97 560.448 198.649 515.01 211.586 457.919C224.6 400.48 208.183 341.683 170.307 299.989C182.777 280.936 196.807 262.986 212.23 246.341C260.849 274.345 321.081 277.31 373.387 251.317C425.205 225.566 459.661 176.165 468.062 120.638C479.047 119.713 490.111 119.248 501.238 119.248C512.367 119.248 523.427 119.713 534.394 120.639C542.812 176.166 577.273 225.567 629.088 251.317C681.397 277.311 741.628 274.344 790.241 246.332C805.662 262.977 819.695 280.924 832.171 299.97C794.292 341.685 777.876 400.48 790.89 457.921C803.827 515.01 843.505 560.447 895.132 581.358C892.017 604.331 886.996 626.858 880.145 648.752C825.014 644.95 770.129 668.176 734.062 713.556C697.366 759.727 686.926 820.287 703.381 874.786C688.078 884.026 672.186 892.207 655.804 899.268L643.427 904.36zM501.238 695.248C600.207 695.248 680.438 615.017 680.438 516.048C680.438 417.078 600.207 336.848 501.238 336.848C402.268 336.848 322.038 417.078 322.038 516.048C322.038 615.017 402.268 695.248 501.238 695.248zM501.238 618.448C444.684 618.448 398.838 572.602 398.838 516.048C398.838 459.494 444.684 413.648 501.238 413.648C557.792 413.648 603.638 459.494 603.638 516.048C603.638 572.602 557.792 618.448 501.238 618.448z" />
        <glyph
          glyph-name="share"
          unicode="&#xe0b8;"
          horiz-adv-x="1024" d=" M408.344 890.267C431.226 890.267 449.775 871.717 449.775 848.835C449.775 825.953 431.226 807.403 408.344 807.403L408.344 807.403L309.558 807.403C240.912 807.403 185.263 751.755 185.263 683.109L185.263 683.109L185.263 293.719C185.263 225.073 240.912 169.424 309.558 169.424L309.558 169.424L718.484 169.424C787.13 169.424 842.779 225.073 842.779 293.719L842.779 293.719L842.779 518.393C842.779 541.275 861.328 559.824 884.211 559.824C907.093 559.824 925.642 541.275 925.642 518.393L925.642 518.393L925.642 293.719C925.642 179.309 832.894 86.561 718.484 86.561L718.484 86.561L309.558 86.561C195.148 86.561 102.4 179.309 102.4 293.719L102.4 293.719L102.4 683.109C102.4 797.519 195.148 890.267 309.558 890.267L309.558 890.267zM730.341 934.57C746.248 951.019 772.477 951.458 788.926 935.551L788.926 935.551L904.85 823.445C921.69 807.16 921.69 780.164 904.85 763.879L904.85 763.879L788.926 651.773C772.477 635.867 746.248 636.306 730.341 652.754C714.434 669.203 714.873 695.432 731.322 711.339L731.322 711.339L775.983 754.519C646.52 754.283 541.642 649.259 541.642 519.74L541.642 519.74L541.642 434.867C541.642 411.985 523.093 393.435 500.211 393.435C477.328 393.435 458.779 411.985 458.779 434.867L458.779 434.867L458.779 519.74C458.779 695.169 600.992 837.382 776.421 837.382L771.302 837.325L731.322 875.985C715.841 890.957 714.541 915.072 727.704 931.57z" />
        <glyph
          glyph-name="tel"
          unicode="&#xe0ba;"
          horiz-adv-x="1024" d=" M630.678 398.607L641.45 407.738L652.959 417.097C657.902 421.039 663.089 425.08 668.497 429.191C698.437 452.063 723.605 457.399 751.749 452.722L759.2 451.279C788.563 445.41 881.419 371.809 918.785 322.121C942.261 291.316 951.533 270.099 945.403 242.864L943.761 235.799C938.901 216.15 933.077 208.733 884.471 167.643L845.286 134.84C764.32 69.002 708.666 64.684 587.126 91.933C482.714 115.401 322.341 250.327 222.476 404.728C132.164 544.358 115.895 633.827 135.247 748.79C147.316 821.248 197.508 890.597 257.674 938.026L268.925 946.96L274.367 951.129C281.693 956.598 288.137 960.749 295.035 964.112C342.112 987.069 380.442 964.913 434.802 893.087L444.868 879.48C497.627 806.712 509.502 751.554 493.605 706.963L491.862 702.388C491.41 701.274 490.988 700.271 490.558 699.29L487.583 692.96L488.07 694.861L487.316 692.381C483.783 681.707 477.318 673.79 461.12 658.34L448.267 646.315L436.88 635.935L429.128 629.013L421.271 622.093L407.289 610.01L403.289 607.956L402.291 607.207C401.417 606.506 400.073 605.339 398.679 603.811C392.424 596.955 390.772 589.366 397.063 574.27C416.087 528.71 492.08 433.918 545.259 385.195C563.964 368.139 578.466 364.422 589.776 366.629L623.049 391.795L630.678 398.607zM413.896 719.896L417.015 723.266L420.695 731.258L421.595 733.737C423.49 739.649 423.897 746.564 421.93 756.817C418.124 776.654 405.954 802.314 382.68 834.415L374.071 846.08C356.098 869.942 342.521 884.702 332.804 891.871L329.475 894.226C327.778 895.622 329.434 895.442 328.696 895.082L325.97 893.62C324.389 892.651 322.368 891.177 318.243 887.971L299.195 872.832C255.345 836.331 219.067 784.585 210.992 736.106C194.713 639.398 207.446 569.378 286.963 446.437C376.878 307.42 522.061 185.273 603.947 166.868L620.567 163.245C708.544 144.702 741.463 149.308 796.993 194.554L843.033 233.345C856.795 245.163 863.838 251.585 867.329 255.304L869.526 257.893C867.688 261.685 863.933 267.392 857.553 275.765C842.516 295.76 816.294 320.735 786.49 344.359C776.114 352.583 765.882 360.167 756.984 366.29L751.814 369.782C749.617 371.237 747.589 372.538 745.776 373.661L740.88 376.581L738.971 377.002C730.91 378.359 726.708 377.014 715.048 368.107C710.076 364.327 705.348 360.644 700.868 357.072L694.334 351.798C687.944 346.576 682.91 342.285 679.266 339.076L674.22 334.501L670.971 331.747L627.798 299.094L621.712 296.263C618.897 295.093 615.448 293.907 611.392 292.835C575.582 283.373 533.487 291.993 493.444 328.508C432.714 384.148 350.296 486.956 326.184 544.701C307.883 588.609 316.361 627.533 341.944 655.574C347.886 662.086 353.886 667.158 359.436 670.99L363.505 673.634L385.477 692.997L392.567 699.429L404.341 710.421L413.896 719.896z" />
        <glyph
          glyph-name="top"
          unicode="&#xe0bb;"
          horiz-adv-x="1024" d=" M516.516 694.025C517.835 693.097 519.062 692.046 520.183 690.887L721.13 483.041C730.211 473.667 730.677 459.137 722.7 449.228L720.53 446.852C720.526 446.849 720.523 446.845 720.509 446.853L713.086 439.684C703.299 430.233 687.829 430.089 677.867 439.355L537.6 569.83L537.6 179.2C537.6 157.992 520.408 140.8 499.2 140.8C477.992 140.8 460.8 157.992 460.8 179.2L460.8 565.504L325.19 439.355C315.994 430.801 302.105 430.267 292.325 437.669L289.971 439.684L282.548 446.853C282.534 446.845 282.531 446.849 282.527 446.852L280.357 449.228C272.38 459.137 272.845 473.667 281.927 483.041L281.927 483.041L482.873 690.887C483.994 692.046 485.222 693.097 486.541 694.025C491.108 697.241 496.363 698.753 501.551 698.693C506.711 698.748 511.957 697.235 516.516 694.025zM729.6 870.4C750.808 870.4 768 853.208 768 832C768 810.792 750.808 793.6 729.6 793.6L281.6 793.6C267.462 793.6 256 805.062 256 819.2L256 844.8C256 858.938 267.462 870.4 281.6 870.4L729.6 870.4z" />
        <glyph
          glyph-name="uncheck"
          unicode="&#xe0bc;"
          horiz-adv-x="1024" d=" M512 921.6C738.216 921.6 921.6 738.216 921.6 512C921.6 285.784 738.216 102.4 512 102.4C285.784 102.4 102.4 285.784 102.4 512C102.4 738.216 285.784 921.6 512 921.6zM512 870.4C314.061 870.4 153.6 709.939 153.6 512C153.6 314.061 314.061 153.6 512 153.6C709.939 153.6 870.4 314.061 870.4 512C870.4 709.939 709.939 870.4 512 870.4z" />
        <glyph
          glyph-name="want"
          unicode="&#xe0bd;"
          horiz-adv-x="1024" d=" M516.823 831.38C570.222 886.567 634.738 921.6 702.378 921.6C854.4 921.6 977.92 800.148 977.92 650.036C977.92 529.952 901.969 394.119 781.406 266.558L767.647 252.245C670.758 153.139 562.914 77.761 510.708 77.761C456.015 77.761 340.262 160.477 240.022 266.532C119.465 394.084 43.52 529.922 43.52 650.036C43.52 821.699 155.59 921.6 319.038 921.6C386.686 921.6 451.208 886.565 504.6 831.38L510.711 824.924L516.823 831.38z" />
        <glyph
          glyph-name="warning-text"
          unicode="&#xe0be;"
          horiz-adv-x="1024" d=" M512 1024C794.784 1024 1024 794.784 1024 512S794.784 0 512 0S0 229.216 0 512S229.216 1024 512 1024zM517.312 315.264C496.288 315.264 479.072 308.576 465.696 295.2C450.4 281.824 443.712 264.608 443.712 243.584S450.4 205.344 465.696 191.968C479.072 178.592 496.288 170.944 517.312 170.944S555.552 177.632 570.848 191.008C584.224 204.384 591.872 222.56 591.872 243.584S584.224 281.824 570.848 295.2C556.512 308.576 538.368 315.264 517.312 315.264zM582.304 853.344H453.28L477.184 366.88H558.432L582.336 853.344z" />
        <glyph
          glyph-name="arrow"
          unicode="&#xe092;"
          horiz-adv-x="1024" d=" M471.294 910.353C486.29 895.357 486.29 871.043 471.294 856.047L118.298 503.066L471.294 150.072C486.29 135.076 486.29 110.762 471.294 95.766C456.297 80.77 431.984 80.77 416.988 95.766L36.847 475.906C21.851 490.903 21.851 515.216 36.847 530.212L416.988 910.353C431.984 925.349 456.297 925.349 471.294 910.353z" />
        <glyph
          glyph-name="bigarrow"
          unicode="&#xe0bf;"
          horiz-adv-x="1024" d=" M397.088 778.592L651.2 524.64A25.6 25.6 0 0 0 653.344 490.848L651.2 488.448L397.76 235.008A25.6 25.6 0 0 0 361.568 271.2L596.8 506.464L360.864 742.4A25.6 25.6 0 0 0 397.056 778.592z" />
        <glyph
          glyph-name="comment"
          unicode="&#xe0c0;"
          horiz-adv-x="1024" d=" M154.684 101.709A75.648 75.648 0 0 0 43.733 168.576V759.808A148.992 148.992 0 0 0 192.725 908.8H829.141A148.992 148.992 0 0 0 978.133 759.808V340.966A148.992 148.992 0 0 0 829.141 191.974H325.615L154.684 101.709zM306.594 268.774H829.141A72.192 72.192 0 0 1 901.333 340.966V759.808A72.192 72.192 0 0 1 829.141 832H192.725A72.192 72.192 0 0 1 120.533 759.808V170.496L306.594 268.774z" />
        <glyph
          glyph-name="consult"
          unicode="&#xe0c1;"
          horiz-adv-x="1024" d=" M728.577 446.037L728.577 443.498C728.577 374.517 626.303 318.287 501.021 318.287C375.74 318.287 273.466 374.487 273.466 443.498L273.466 446.037L728.548 446.037L728.577 446.037zM660.934 91.281C792.322 101.21 904.206 190.6 942.861 316.527L943.445 318.804C947.27 317.549 951.095 317.549 956.234 317.549C993.543 317.803 1023.729 347.968 1024 385.265L1024 545.042L1024 545.392C1024 582.598 993.83 612.759 956.613 612.759L956.234 612.759L956.263 612.759L956.263 658.76C956.263 835.145 813.109 977 637.927 977L387.358 977C210.978 977 69.051 833.89 69.051 658.76L69.051 614.043C30.686 614.043 0 583.366 0 546.268L0 387.455C0 350.249 30.17 320.088 67.387 320.088L67.766 320.088L67.737 320.088C105.046 320.342 135.233 350.507 135.504 387.805L135.504 658.76C135.504 796.791 248 909.254 386.073 909.254L636.642 909.254C774.686 909.254 887.212 796.791 887.212 658.76L887.212 409.55C887.16 278.594 786.007 169.882 655.358 160.369L654.54 160.311L605.956 160.311C593.168 187.164 565.022 206.312 534.336 206.312C490.667 206.073 455.321 170.75 455.066 127.095L455.066 127.066C455.305 83.41 490.638 48.075 534.307 47.815L534.336 47.815C565.262 47.486 593.421 65.583 605.956 93.849L660.934 91.281L660.934 91.281zM631.592 205.507L659.726 205.507C759.525 205.507 841.357 287.265 841.357 386.846L841.357 681.883C841.357 781.493 759.496 863.222 659.726 863.222L364.274 863.222C264.475 863.222 182.643 781.464 182.643 681.883L182.643 386.846C182.643 287.236 264.504 205.507 364.274 205.507L438.451 205.507C462.095 234.602 497.626 251.492 535.153 251.476L535.708 251.476L535.679 251.476C572.609 250.214 607.335 233.614 631.475 205.682L631.621 205.507L631.592 205.507z" />
        <glyph
          glyph-name="document"
          unicode="&#xe0c2;"
          horiz-adv-x="1024" d=" M704 960A140.8512 140.8512 0 0 0 842.829 842.829A140.8512 140.8512 0 0 0 959.898 709.658L960 704V460.8A38.4 38.4 0 0 0 883.379 457.114L883.2 460.8V704A64 64 0 0 1 823.398 767.872L819.2 768H332.8A64 64 0 0 1 268.928 708.198L268.8 704V192A64 64 0 0 1 328.602 128.128L332.8 128H819.2A64 64 0 0 1 883.072 187.802L883.2 192V261.453A38.4 38.4 0 0 0 959.821 265.165L960 261.453V192A140.8 140.8 0 0 0 824.858 51.302L819.2 51.2H332.8A140.8512 140.8512 0 0 0 201.216 141.747A140.8 140.8 0 0 0 76.902 275.942L76.8 281.6V716.8A243.20000000000002 243.20000000000002 0 0 0 313.088 959.898L320 960H704zM704 883.2H320A166.4 166.4 0 0 1 153.702 722.765L153.6 716.8V281.6A64 64 0 0 1 192 222.925V704A140.8 140.8 0 0 0 327.142 844.698L332.8 844.8H762.675A64.0256 64.0256 0 0 1 708.198 883.072L704 883.2z M691.2 339.2A38.4 38.4 0 0 0 691.2 262.4H473.6A38.4 38.4 0 0 0 473.6 339.2H691.2zM691.2 480A38.4 38.4 0 0 0 691.2 403.2H473.6A38.4 38.4 0 0 0 473.6 480H691.2zM691.2 620.8A38.4 38.4 0 0 0 691.2 544H473.6A38.4 38.4 0 0 0 473.6 620.8H691.2z" />
        <glyph
          glyph-name="download"
          unicode="&#xe0c3;"
          horiz-adv-x="1024" d=" M484.416 231.68C499.968 215.936 527.744 215.936 543.136 231.68L785.248 476.096A40.25600000000001 40.25600000000001 0 0 1 784.544 533.408C768.8 548.8 741.76 548.448 726.368 532.864L554.624 359.712V926.72C554.624 949.184 536.224 967.392 513.408 967.392C490.784 967.392 472.192 949.184 472.192 926.72V359.712L300.64 532.864A40.832 40.832 0 0 1 271.648 545.056H271.104C260.32 545.056 250.048 540.992 242.464 533.376A40.32 40.32 0 0 1 230.08 504.896C229.888 493.92 234.144 483.84 241.76 476.064L484.416 231.648z M974.848 411.552C952.224 411.552 933.632 393.344 933.632 370.88V84.736H93.568V370.88C93.568 393.344 75.168 411.552 52.352 411.552C29.728 411.552 11.136 393.344 11.136 370.88V44.064C11.136 21.6 29.536 3.392 52.352 3.392H974.656C997.28 3.392 1015.872 21.6 1015.872 44.064V370.88A40.736 40.736 0 0 1 974.848 411.552z" />
        <glyph
          glyph-name="logistics"
          unicode="&#xe0c4;"
          horiz-adv-x="1024" d=" M820.372 216.685L945.233 216.685L945.233 587.36L611.025 773.009C598.531 779.963 590.784 793.139 590.781 807.438L590.781 886.205L78.795 886.205L78.795 216.656L203.656 216.656C220.361 263.005 263.935 295.508 315.125 295.508C366.315 295.508 409.889 262.977 426.31 217.477L426.565 216.656L597.491 216.656C614.196 263.005 657.77 295.508 708.96 295.508C760.15 295.508 803.724 262.977 820.146 217.477L820.4 216.656L820.372 216.685zM820.372 137.918C803.667 91.569 760.094 59.066 708.903 59.066C657.713 59.066 614.14 91.597 597.718 137.097L597.463 137.918L426.537 137.918C409.832 91.569 366.258 59.066 315.068 59.066C263.878 59.066 220.304 91.597 203.883 137.097L203.628 137.918L39.384 137.918C17.633 137.918 0 155.55 0 177.301L0 925.616C0 947.361 17.639 965 39.384 965L630.165 965C651.909 965 669.548 947.361 669.548 925.616L669.548 830.626L1003.756 644.977C1015.931 638.125 1024 625.271 1024 610.548L1024 177.329C1024 155.585 1006.361 137.946 984.616 137.946L820.372 137.946L820.372 137.918zM669.548 649.932L669.548 492.398L827.082 492.398C848.833 492.398 866.466 474.765 866.466 453.014C866.466 431.263 848.833 413.631 827.082 413.631L630.165 413.631C608.414 413.631 590.781 431.263 590.781 453.014L590.781 649.932C590.781 671.683 608.414 689.315 630.165 689.315C651.916 689.315 669.548 671.683 669.548 649.932L669.548 649.932zM315.068 137.918C336.819 137.918 354.452 155.55 354.452 177.301C354.452 199.052 336.819 216.685 315.068 216.685C293.317 216.685 275.685 199.052 275.685 177.301C275.685 155.55 293.317 137.918 315.068 137.918zM708.932 137.918C730.683 137.918 748.315 155.55 748.315 177.301C748.315 199.052 730.683 216.685 708.932 216.685C687.181 216.685 669.548 199.052 669.548 177.301C669.548 155.55 687.181 137.918 708.932 137.918L708.932 137.918z" />
        <glyph
          glyph-name="off-loading"
          unicode="&#xe0c5;"
          horiz-adv-x="1024" d=" M885.344 1002.656H138.688C74.688 1002.656 21.344 949.312 21.344 885.312V575.968C21.344 558.912 36.288 543.968 53.344 543.968S85.344 558.912 85.344 575.968V885.312A52.8 52.8 0 0 0 138.688 938.656H885.344A52.8 52.8 0 0 0 938.688 885.312V575.968C938.688 558.912 953.632 543.968 970.688 543.968S1002.688 558.912 1002.688 575.968V885.312C1002.688 949.312 949.344 1002.656 885.344 1002.656z M744.544 332.8L541.888 130.144V693.344C541.888 710.4 526.944 725.344 509.888 725.344S477.888 710.4 477.888 693.344V130.144L277.344 330.688C264.544 343.488 245.344 343.488 232.544 330.688S219.744 298.688 232.544 285.888L486.4 32.032V29.888C488.544 27.744 492.8 25.632 494.944 23.488C503.488 21.344 507.744 21.344 512 21.344S518.4 21.344 522.656 23.488C524.8 23.488 524.8 23.488 526.912 25.632S531.168 27.776 533.312 29.888C533.312 29.888 535.456 29.888 535.456 32.032V34.176L791.456 290.176C804.256 302.976 804.256 322.176 791.456 334.976C778.656 345.632 757.312 345.632 744.512 332.832z" />
        <glyph
          glyph-name="radio"
          unicode="&#xe0c6;"
          horiz-adv-x="1024" d=" M511.936 1023.36C229.984 1023.36 1.376 794.784 1.376 512.8S229.952 2.24 511.936 2.24C793.888 2.24 1022.496 230.816 1022.496 512.8S793.92 1023.36 511.936 1023.36zM511.936 42.784C252.352 42.784 41.92 253.216 41.92 512.8S252.352 982.816 511.936 982.816C771.52 982.816 981.952 772.384 981.952 512.8S771.52 42.784 511.936 42.784zM511.936 755.936C377.664 755.936 268.832 647.104 268.832 512.832S377.664 269.728 511.936 269.728A243.104 243.104 0 1 1 511.936 755.936z" />
        <glyph
          glyph-name="scan-l"
          unicode="&#xe0c7;"
          horiz-adv-x="1024" d=" M891.52 486.496H132.512C116.352 486.496 103.328 499.52 103.328 515.68S116.352 544.864 132.512 544.864H891.52C907.68 544.864 920.704 531.84 920.704 515.68S907.68 486.496 891.52 486.496zM803.936 136.096H628.672C612.512 136.096 599.488 149.12 599.488 165.28S612.512 194.464 628.672 194.464H803.808A29.120000000000005 29.120000000000005 0 0 1 832.992 223.648V369.568C832.992 385.728 846.016 398.752 862.176 398.752S891.36 385.728 891.36 369.568V223.648A87.55199999999999 87.55199999999999 0 0 0 803.968 136.096zM365.984 136.096H220.064A87.584 87.584 0 0 0 132.512 223.648V369.568C132.512 385.728 145.536 398.752 161.696 398.752S190.88 385.728 190.88 369.568V223.648C190.88 207.488 204.064 194.464 220.064 194.464H365.984C382.144 194.464 395.168 181.44 395.168 165.28S382.144 136.096 365.984 136.096zM161.664 632.416A29.120000000000005 29.120000000000005 0 0 0 132.48 661.6V807.52A87.584 87.584 0 0 0 220.032 895.072H365.952C382.112 895.072 395.136 882.048 395.136 865.888S382.112 836.704 365.952 836.704H220.032C204.032 836.704 190.848 823.52 190.848 807.52V661.6A29.120000000000005 29.120000000000005 0 0 0 161.664 632.416zM862.336 632.416A29.120000000000005 29.120000000000005 0 0 0 833.152 661.6V807.52C833.152 823.52 820.128 836.704 803.968 836.704H628.704C612.544 836.704 599.52 849.728 599.52 865.888S612.544 895.072 628.704 895.072H803.84A87.584 87.584 0 0 0 891.392 807.52V661.6A28.896 28.896 0 0 0 862.368 632.416z" />
        <glyph
          glyph-name="setting-l"
          unicode="&#xe0c8;"
          horiz-adv-x="1024" d=" M516.032 103.2H508.288A77.12 77.12 0 0 0 431.168 180.32A25.12 25.12 0 0 1 413.472 204.32A321.504 321.504 0 0 0 365.12 224.256A25.055999999999997 25.055999999999997 0 0 1 335.616 219.84A77.44 77.44 0 0 0 224.896 219.84L218.624 226.112A77.12 77.12 0 0 0 218.624 336.832A25.055999999999997 25.055999999999997 0 0 1 223.04 366.336C215.104 382.016 208.416 398.304 203.104 415.04A25.055999999999997 25.055999999999997 0 0 1 179.104 432.736A77.536 77.536 0 0 0 102.336 508V515.744A77.12 77.12 0 0 0 179.456 593.952A25.12 25.12 0 0 1 203.456 611.648C208.768 628.384 215.456 644.672 223.392 660.352A25.055999999999997 25.055999999999997 0 0 1 218.976 689.856A77.44 77.44 0 0 0 218.976 800.576L225.248 806.848A78.912 78.912 0 0 0 335.936 806.848C343.744 799.04 355.712 797.248 365.44 802.432C380.576 809.664 396.224 815.712 412.288 820.512A25.055999999999997 25.055999999999997 0 0 1 429.984 844.512A77.568 77.568 0 0 0 508.192 921.632H517.056A77.12 77.12 0 0 0 593.056 844.512C593.056 833.504 600.224 823.776 610.752 820.512A323.52 323.52 0 0 0 659.456 800.576A25.055999999999997 25.055999999999997 0 0 1 688.96 804.992A78.912 78.912 0 0 0 799.648 804.992L805.92 798.72A77.44 77.44 0 0 0 805.92 688A25.055999999999997 25.055999999999997 0 0 1 801.504 658.496C809.472 642.848 816.128 626.56 821.44 609.792A25.055999999999997 25.055999999999997 0 0 1 845.44 592.096A77.12 77.12 0 0 0 920.704 515.712V507.232A77.12 77.12 0 0 0 843.584 430.112A25.12 25.12 0 0 1 819.584 412.416A314.4 314.4 0 0 0 799.648 363.712A25.055999999999997 25.055999999999997 0 0 1 804.064 334.208A77.12 77.12 0 0 0 804.064 223.488L797.792 217.216A77.12 77.12 0 0 0 687.072 217.216A25.055999999999997 25.055999999999997 0 0 1 657.568 221.632C641.888 213.696 625.6 207.04 608.864 201.696A25.055999999999997 25.055999999999997 0 0 1 591.168 177.696A77.44 77.44 0 0 0 515.904 103.168zM351.84 279.2C364.64 279.424 377.312 276.512 388.736 270.72C401.792 263.968 415.36 258.272 429.312 253.76A76.736 76.736 0 0 0 483.168 179.968A25.568 25.568 0 0 1 508.64 154.496H517.504A25.472 25.472 0 0 1 542.592 179.968A76.768 76.768 0 0 0 596.448 253.76A268.256 268.256 0 0 1 637.024 270.72A76.736 76.736 0 0 0 726.688 256.704A25.472 25.472 0 0 1 763.616 256.704L769.888 262.976A25.472 25.472 0 0 1 769.888 299.904A77.12 77.12 0 0 0 755.872 389.568C762.624 402.624 768.32 416.192 772.832 430.144A76.736 76.736 0 0 0 846.624 484A25.472 25.472 0 0 1 872.096 509.472V515.744A25.472 25.472 0 0 1 847.008 541.216A76.768 76.768 0 0 0 773.216 595.072A272.96 272.96 0 0 1 756.256 635.648A76.8 76.8 0 0 0 766.592 726.432A25.472 25.472 0 0 1 766.592 763.36L760.32 769.632A25.856000000000005 25.856000000000005 0 0 1 723.392 769.632A76.736 76.736 0 0 0 633.728 755.616A263.168 263.168 0 0 1 593.152 772.576A76.736 76.736 0 0 0 539.296 846.368A25.472 25.472 0 0 1 514.208 871.84H508.32A25.568 25.568 0 0 1 482.848 846.368A76.768 76.768 0 0 0 428.992 772.576A268.256 268.256 0 0 1 388.416 755.616A76.736 76.736 0 0 0 298.752 769.28A25.856000000000005 25.856000000000005 0 0 1 261.824 769.28L255.552 763.008A25.472 25.472 0 0 1 255.552 726.08C279.296 702.464 284.96 666.176 269.568 636.416A271.04 271.04 0 0 1 252.608 595.84A76.736 76.736 0 0 0 178.816 541.984A25.568 25.568 0 0 1 153.344 516.512V508.032A25.568 25.568 0 0 1 178.816 482.56A76.768 76.768 0 0 0 252.608 428.704C257.152 414.752 262.816 401.152 269.568 388.128A76.736 76.736 0 0 0 255.904 298.464A25.472 25.472 0 0 1 255.904 261.536L262.176 255.264A25.472 25.472 0 0 1 299.104 255.264A76.44800000000001 76.44800000000001 0 0 0 351.872 279.264z M511.616 368.128A143.904 143.904 0 1 0 655.52 512.032A144.256 144.256 0 0 0 511.616 368.128zM511.616 604.288A92.256 92.256 0 1 1 603.872 512.032A92.224 92.224 0 0 1 511.648 604.64V604.256z" />
        <glyph
          glyph-name="unradio"
          unicode="&#xe0c9;"
          horiz-adv-x="1024" d=" M512 128C724.064 128 896 299.936 896 512S724.064 896 512 896S128 724.064 128 512S299.936 128 512 128zM512 102.4C285.792 102.4 102.4 285.792 102.4 512S285.792 921.6 512 921.6C738.208 921.6 921.6 738.208 921.6 512S738.208 102.4 512 102.4z" />
        <glyph
          glyph-name="weixin"
          unicode="&#xe0ca;"
          horiz-adv-x="1024" d=" M897.049 175.409L924.32 82L824.909 138.169C788.664 128.785 752.285 119.401 716.202 119.401C543.763 119.401 408 240.962 408 390.674C408 540.144 543.763 662 716.202 662C879.021 662 1024 540.144 1024 390.674C1024 306.353 969.781 231.712 897.049 175.409L897.049 175.409zM616.423 512C598.279 512 580 493.183 580 474.5C580 455.575 598.279 437 616.423 437C643.937 437 662 455.575 662 474.5C662 493.183 643.937 512 616.423 512L616.423 512zM815.831 512C798.009 512 780 493.183 780 474.5C780 455.575 798.036 437 815.831 437C842.911 437 861 455.575 861 474.5C861 493.183 842.884 512 815.831 512L815.831 512zM385.037 386.463C385.037 359.339 389.121 333.182 396.214 308.206C385.037 307.293 373.726 306.702 362.361 306.702C317.17 306.702 280.765 316.236 235.439 325.474L108.759 260L145.004 372.337C54.272 437.65 0 521.87 0 624.432C0 802.082 163.193 942 362.361 942C540.546 942 696.646 830.2 728 679.754C716.447 681.07 704.84 681.956 693.072 681.956C520.96 681.956 385.037 549.558 385.037 386.463zM244.67 783C217.483 783 190 764.566 190 736.607C190 708.728 217.483 690 244.67 690C271.857 690 290 708.702 290 736.607C290 764.566 271.857 783 244.67 783zM498.538 783C471.336 783 444 764.566 444 736.607C444 708.728 471.336 690 498.538 690C525.901 690 544 708.702 544 736.607C544 764.566 525.901 783 498.538 783z" />
        <glyph
          glyph-name="arrow-right"
          unicode="&#xe0cb;"
          horiz-adv-x="1024" d=" M609.803 842.508C625.171 857.902 649.371 859.107 666.121 846.107L670.143 842.561L971.039 542.197C986.376 526.887 987.636 502.795 974.764 486.042L971.251 482.016L670.355 177.391C653.796 160.627 626.781 160.46 610.016 177.02C594.541 192.306 593.209 216.5 606.12 233.317L609.645 237.359L880.683 511.829L609.857 782.168C594.463 797.535 593.258 821.736 606.258 838.485L609.803 842.508z" />
        <glyph
          glyph-name="caret-down"
          unicode="&#xe0cc;"
          horiz-adv-x="1024" d=" M479.872 378.027L275.243 611.883A42.666667 42.666667 0 0 0 307.371 682.667H716.629A42.666667 42.666667 0 0 0 748.757 611.883L544.128 378.069A42.666667 42.666667 0 0 0 479.872 378.069z" />
        <glyph
          glyph-name="caret-up"
          unicode="&#xe0cd;"
          horiz-adv-x="1024" d=" M544.128 645.973L748.757 412.117A42.666667 42.666667 0 0 0 716.629 341.333H307.371A42.666667 42.666667 0 0 0 275.243 412.117L479.872 645.931A42.666667 42.666667 0 0 0 544.128 645.931z" />
        <glyph
          glyph-name="close-text-o"
          unicode="&#xe0cf;"
          horiz-adv-x="1024" d=" M115.991 968.653L512.002 572.648L908.009 968.653C924.936 985.58 952.036 985.54 968.776 968.8C984.336 953.241 985.377 928.962 972.215 912.088L968.629 908.034L572.587 512L968.629 115.966C985.45 99.145 985.632 72.056 968.776 55.2C952.036 38.46 924.936 38.42 908.009 55.347L512.002 451.346L115.991 55.347C99.064 38.42 71.964 38.46 55.224 55.2C39.664 70.759 38.623 95.038 51.785 111.912L55.371 115.966L451.413 512L55.371 908.034C38.55 924.855 38.368 951.944 55.224 968.8C71.964 985.54 99.064 985.58 115.991 968.653z" />
        <glyph
          glyph-name="filter"
          unicode="&#xe0d1;"
          horiz-adv-x="1024" d=" M851.351 981.333C910.262 981.333 958.018 933.577 958.018 874.667C958.018 850.945 950.114 827.989 935.687 809.359L929.975 802.582L670.934 520.149L671.009 64.004C671.012 30.737 645.632 3.397 613.177 0.293L607.014 0C573.747 0 546.406 25.378 543.303 57.832L543.009 63.996L542.976 545.02C542.975 558.749 547.387 572.05 555.464 583.005L559.805 588.277L802.816 853.333L197.803 853.333L440.82 588.272C450.093 578.156 455.828 565.376 457.278 551.848L457.643 545.031L457.676 234.673C457.68 199.327 429.029 170.67 393.683 170.667C360.416 170.663 333.074 196.042 329.97 228.496L329.676 234.66L329.643 520.149L70.704 802.589C32.628 844.127 33.656 907.667 71.822 947.952L77.257 953.296C94.743 969.326 117.006 979.011 140.481 980.966L149.333 981.333L851.351 981.333z" />
        <glyph
          glyph-name="fold"
          unicode="&#xe0d2;"
          horiz-adv-x="1024" d=" M183.211 351.573A42.666667 42.666667 0 0 0 179.584 407.893L183.125 411.904L483.499 712.789A42.666667 42.666667 0 0 0 539.648 716.544L543.701 713.003L848.341 412.117A42.666667 42.666667 0 0 0 792.363 347.904L788.352 351.403L513.877 622.464L243.541 351.616A42.666667 42.666667 0 0 0 187.221 348.032L183.211 351.573z" />
        <glyph
          glyph-name="order"
          unicode="&#xe0d5;"
          horiz-adv-x="1024" d=" M695.328 469.333C718.892 469.333 737.994 450.231 737.994 426.667C737.994 414.211 732.552 402.378 723.095 394.272L539.767 237.134C523.789 223.438 500.211 223.438 484.233 237.134L300.905 394.272C283.014 409.607 280.942 436.543 296.277 454.434C304.383 463.891 316.217 469.333 328.672 469.333L695.328 469.333zM539.767 786.866L723.095 629.728C740.986 614.393 743.058 587.457 727.723 569.566C719.617 560.109 707.783 554.667 695.328 554.667L328.672 554.667C305.108 554.667 286.006 573.769 286.006 597.333C286.006 609.789 291.448 621.622 300.905 629.728L484.233 786.866C500.211 800.562 523.789 800.562 539.767 786.866z" />
        <glyph
          glyph-name="refresh"
          unicode="&#xe0d6;"
          horiz-adv-x="1024" d=" M511.948 981.333C728.555 981.333 917.673 836.263 971.576 628.758C976.575 609.442 964.795 589.774 945.265 584.831C925.734 579.886 905.85 591.538 900.852 610.855C845.613 823.324 626.694 951.27 411.883 896.633C303.587 869.088 211.804 798.132 158.624 700.839L238.909 663.805C244.38 661.26 246.728 654.809 244.153 649.399C243.104 647.192 241.333 645.401 239.127 644.316L62.393 557.723C56.969 555.081 50.406 557.287 47.735 562.654C47.382 563.36 47.109 564.103 46.919 564.87L0.318 754.405C-1.123 760.213 2.469 766.077 8.341 767.502C10.774 768.093 13.34 767.841 15.608 766.784L92.39 731.413C174.647 885.15 336.089 981.318 511.948 981.333L511.948 981.333zM976.283 461.567L976.757 460.447L1023.686 269.759C1025.118 263.949 1021.515 258.09 1015.641 256.675C1013.227 256.094 1010.686 256.342 1008.433 257.378L931.543 292.823C809.083 63.631 521.962 -23.976 290.244 97.15C172.733 158.574 86.649 265.93 52.941 393.094C47.841 412.382 59.515 432.104 79.014 437.148C98.514 442.193 118.455 430.645 123.554 411.358C179.884 199.17 399.456 72.323 613.984 128.039C721.478 155.956 812.471 226.685 865.309 323.395L785.134 360.393C779.657 362.929 777.298 369.376 779.86 374.791C780.906 376.998 782.674 378.794 784.878 379.884L961.613 466.44C967.033 469.092 973.6 466.897 976.28 461.536C976.281 461.533 976.281 461.532 976.283 461.53L976.283 461.567z" />
        <glyph
          glyph-name="unfold"
          unicode="&#xe0d7;"
          horiz-adv-x="1024" d=" M848.469 670.208A42.666667 42.666667 0 0 0 852.053 613.888L848.512 609.877L548.139 308.949A42.666667 42.666667 0 0 0 491.989 305.237L487.979 308.736L183.339 609.664A42.666667 42.666667 0 0 0 239.275 673.877L243.328 670.336L517.803 399.317L788.139 670.123A42.666667 42.666667 0 0 0 844.459 673.749L848.469 670.208z" />
        <glyph
          glyph-name="toast-fail"
          unicode="&#xe0e8;"
          horiz-adv-x="1024" d=" M512 1024C794.773 1024 1024 794.773 1024 512S794.773 0 512 0S0 229.227 0 512S229.227 1024 512 1024zM512 1005.382C239.514 1005.382 18.618 784.486 18.618 512S239.514 18.618 512 18.618S1005.382 239.514 1005.382 512S784.486 1005.382 512 1005.382zM512 307.2A37.236364 37.236364 0 1 0 512 232.727A37.236364 37.236364 0 0 0 512 307.2zM512 791.273A44.60916400000001 44.60916400000001 0 0 0 556.563 744.774L541.11 381.645A29.137454999999996 29.137454999999996 0 0 0 482.881 381.645L467.428 744.774A44.60916400000001 44.60916400000001 0 0 0 512 791.273z" />
        <glyph
          glyph-name="toast-network"
          unicode="&#xe0e9;"
          horiz-adv-x="1024" d=" M512 1024C794.773 1024 1024 794.773 1024 512S794.773 0 512 0S0 229.227 0 512S229.227 1024 512 1024zM512 1005.382C239.514 1005.382 18.618 784.486 18.618 512S239.514 18.618 512 18.618S1005.382 239.514 1005.382 512S784.486 1005.382 512 1005.382zM512 372.364A46.545455000000004 46.545455000000004 0 1 0 512 279.273A46.545455000000004 46.545455000000004 0 0 0 512 372.364zM512 558.545C580.925 558.545 646.777 532.182 698.173 486.279A27.927273 27.927273 0 1 0 660.945 444.63C619.576 481.587 566.868 502.691 512 502.691C457.886 502.691 404.499 481.243 362.924 444.528A27.927273 27.927273 0 0 0 325.949 486.381C377.437 531.875 443.848 558.545 512 558.545zM512 744.727A445.272436 445.272436 0 0 0 815.83 625.534A27.927273 27.927273 0 1 0 777.849 584.592A389.42719999999997 389.42719999999997 0 0 1 512 688.873A389.42719999999997 389.42719999999997 0 0 1 246.132 584.574A27.927273 27.927273 0 1 0 208.151 625.515A445.272436 445.272436 0 0 0 512 744.727z" />
        <glyph
          glyph-name="toast-success"
          unicode="&#xe0ea;"
          horiz-adv-x="1024" d=" M512 1024C794.773 1024 1024 794.773 1024 512S794.773 0 512 0S0 229.227 0 512S229.227 1024 512 1024zM512 1005.382C239.514 1005.382 18.618 784.486 18.618 512S239.514 18.618 512 18.618S1005.382 239.514 1005.382 512S784.486 1005.382 512 1005.382zM736.545 634.145A27.927273 27.927273 0 0 0 737.801 595.996L736.545 594.655L494.508 352.619A27.927273 27.927273 0 0 0 456.36 351.362L455.019 352.619L320.037 487.601A27.927273 27.927273 0 0 0 358.186 528.347L359.526 527.09L474.764 411.862L697.055 634.145A27.927273 27.927273 0 0 0 736.545 634.145z" />
    </font>
</defs>
</svg>
