<?xml version="1.0" encoding="UTF-8"?>
<svg width="40px" height="40px" viewBox="0 0 40 40" version="1.1" xmlns="http://www.w3.org/2000/svg" xmlns:xlink="http://www.w3.org/1999/xlink">
    <!-- Generator: Sketch 57.1 (83088) - https://sketch.com -->
    <title>客服</title>
    <desc>Created with Sketch.</desc>
    <g id="页面1" stroke="none" stroke-width="1" fill="none" fill-rule="evenodd">
        <g id="收藏夹" transform="translate(1.000000, 3.000000)" fill="#111111" fill-rule="nonzero">
            <g id="Group-48">
                <g id="Group-11" transform="translate(0.500000, 0.000000)">
                    <path d="M17.8888889,0.5 L19,0.5 C26.2213122,0.5 32.150262,6.03326144 32.7783284,13.0912634 L32.9097345,13.1418632 C34.4293617,13.7634148 35.5,15.2566769 35.5,17 L35.5,20.5555556 C35.5,22.856742 33.6345198,24.7222222 31.3333333,24.7222222 L29.6666667,24.7222222 C28.2859548,24.7222222 27.1666667,23.6029341 27.1666667,22.2222222 L27.1666667,15.3333333 C27.1666667,13.9526215 28.2859548,12.8333333 29.6666667,12.8333333 L29.7303566,12.8335409 C29.0131077,7.65443092 24.6346242,3.64539628 19.2923371,3.50386797 L19,3.5 L17.8888889,3.5 C12.3683925,3.5 7.81233138,7.62923822 7.14081846,12.9676017 C8.12573365,13.3029884 8.83333333,14.2355265 8.83333333,15.3333333 L8.83333333,22.2222222 C8.83333333,23.2989896 8.15259598,24.2167623 7.19800954,24.568652 C7.81549826,27.450247 10.3776229,29.6111111 13.4444444,29.6111111 L19.6666667,29.6111111 C20.4950938,29.6111111 21.1666667,30.282684 21.1666667,31.1111111 C21.1666667,31.9395382 20.4950938,32.6111111 19.6666667,32.6111111 L13.4444444,32.6111111 C8.75909692,32.6111111 4.87533211,29.1791275 4.16991643,24.6919267 C2.10307518,24.4475555 0.5,22.6887647 0.5,20.5555556 L0.5,17 C0.5,14.8795008 2.08402942,13.1289715 4.1333557,12.8671447 C4.8527699,6.02392259 10.5641468,0.667039714 17.5600302,0.503832246 L17.8888889,0.5 L19,0.5 Z M5.83333333,15.8333333 L4.66666667,15.8333333 C4.02233446,15.8333333 3.5,16.3556678 3.5,17 L3.5,20.5555556 C3.5,21.1998878 4.02233446,21.7222222 4.66666667,21.7222222 L5.83333333,21.7222222 L5.83333333,15.8333333 Z M31.3333333,15.8333333 L30.1666667,15.8333333 L30.1666667,21.7222222 L31.3333333,21.7222222 C31.9776655,21.7222222 32.5,21.1998878 32.5,20.5555556 L32.5,17 C32.5,16.3556678 31.9776655,15.8333333 31.3333333,15.8333333 Z" id="形状结合"></path>
                </g>
            </g>
        </g>
    </g>
</svg>